<?xml version="1.0" encoding="UTF-8"?><svg xmlns="http://www.w3.org/2000/svg" xmlns:xlink="http://www.w3.org/1999/xlink" viewBox="0 0 1920 1080"><defs><style>.cls-1{fill:#fff;}.cls-2{isolation:isolate;}.cls-3,.cls-4,.cls-5{fill:none;}.cls-3,.cls-5{stroke:#ff0b53;stroke-miterlimit:10;stroke-width:4px;}.cls-6{mix-blend-mode:overlay;opacity:.35;}.cls-7{fill:#ff0b53;}.cls-8{clip-path:url(#clippath);}.cls-9{fill:#181819;}.cls-5{stroke-linecap:round;}</style><clipPath id="clippath"><rect class="cls-4" width="1920" height="1080"/></clipPath></defs><g class="cls-2"><g id="Layer_2"><g id="BACKGROUND"><g class="cls-8"><g class="cls-6"><path class="cls-9" d="m2234.45,574.08c-202.78,4.8-405.48,4.86-607.84.19,202.53,8.14,405.15,14.56,607.84,19.32v-19.52Z"/><path class="cls-9" d="m2234.45,660.39c-9.56-.41-19.12-.82-28.68-1.25-53.74-2.42-107.45-5.18-161.12-8.28-53.68-3.09-107.44-6.54-161.1-10.32,116.94,10.98,233.9,21.36,350.9,31.2v-11.35Z"/><path class="cls-9" d="m2234.45,717.21c-41.94-3.64-83.85-7.48-125.74-11.52-53.55-5.18-107.04-10.69-160.49-16.54-53.43-5.84-106.83-12.03-160.26-18.56-106.82-13.06-213.41-27.46-319.76-43.2,212.25,34.21,424.83,66.52,637.72,96.92,42.82,6.11,85.67,12.13,128.52,18.09v-25.19Z"/><path class="cls-9" d="m2234.45,806.28c-16.59-2.58-33.18-5.18-49.75-7.82-106.33-16.94-212.37-35.22-318.11-54.82,122.47,25.67,245.1,50.68,367.86,75.07v-12.43Z"/><path class="cls-9" d="m2234.45,873.47c-40.21-8.31-80.39-16.81-120.53-25.52-210.42-45.62-419.23-96.46-626.98-152.67,206.76,58.98,414.1,116.11,621.94,171.36,41.83,11.12,83.69,22.14,125.57,33.11v-26.28Z"/><path class="cls-9" d="m2234.45,1055.36v-18.63c-160.32-52.87-319.64-108.94-477.57-168.08,158.71,63.37,317.92,125.6,477.57,186.71Z"/><path class="cls-9" d="m2234.45,1113.61c-254.17-98.29-504.97-204.62-752.04-318.84,249.37,119.71,500.04,236.47,752.04,350.34v-31.5Z"/><path class="cls-9" d="m2234.45,1212.89c-139.56-64.08-277.91-130.62-414.98-199.62,137.81,73.69,276.18,146.51,414.98,218.41v-18.79Z"/><path class="cls-9" d="m1651.93,975.47c154.18,94.96,309.12,188.76,464.76,281.41h39.62c-170.21-90-338.57-183.94-504.38-281.41Z"/><path class="cls-9" d="m1933.54,1203.81c-91.58-56.59-182.38-114.29-272.4-173.09-45.01-29.4-89.81-59.07-134.44-89.03-44.67-29.99-89.14-60.25-133.42-90.78,193.41,137.27,388.11,272.57,584.13,405.96h42.79c-28.96-17.58-57.86-35.27-86.66-53.06Z"/><path class="cls-9" d="m1691.87,1206.62c-82.3-69.38-163.68-139.75-244.13-211.09,95.51,87.63,191.51,174.74,287.97,261.35h16.15c-20.04-16.69-40.04-33.44-59.99-50.26Z"/><path class="cls-9" d="m1292.33,934.04c92.82,108.15,186.32,215.76,280.44,322.84h13.96c-26.14-27.7-52.15-55.51-78.03-83.43-73.13-78.9-145.29-158.75-216.37-239.4Z"/><path class="cls-9" d="m1354.75,1130.64c-31.2-43.82-62.13-87.83-92.76-132.01,58.1,86.33,116.59,172.41,175.44,258.25h8.38c-14.74-20.17-29.43-40.39-44.04-60.64-15.74-21.82-31.42-43.68-47.02-65.59Z"/><path class="cls-9" d="m1193.82,1072.14c27.78,61.66,55.76,123.23,83.9,184.74h4.41c-6.35-13.01-12.67-26.02-18.97-39.04-23.42-48.43-46.54-97-69.33-145.7Z"/><path class="cls-9" d="m1090.5,1057.32c17.17,66.58,34.55,133.09,52.1,199.56h3.95c-19.23-66.37-37.92-132.89-56.05-199.56Z"/><path class="cls-9" d="m962.39,1256.88h3.68c-2.46-67.12-4.41-134.23-5.84-201.34.53,67.11,1.26,134.23,2.15,201.34Z"/><path class="cls-9" d="m618.55,1256.88c35.02-79.51,70.84-158.65,107.47-237.41-38.02,78.98-75.75,158.13-113.2,237.41h5.73Z"/><path class="cls-9" d="m375.15,1256.88c17.57-23.15,35.2-46.25,52.92-69.28,65.58-85.24,132.28-169.73,199.95-253.26-89.01,106.99-177.41,214.51-265.19,322.54h12.32Z"/><path class="cls-9" d="m222.32,1256.88c110.14-116.04,222.35-229.96,336.77-341.85-118.96,113.13-237.15,227.09-354.58,341.85h17.81Z"/><path class="cls-9" d="m33.88,1256.88c78.65-66.97,158.05-132.96,238.19-197.94-84.6,65.6-168.92,131.58-252.94,197.94h14.76Z"/><path class="cls-9" d="m-103.72,1256.88h36.87c6.95-5.39,13.89-10.78,20.85-16.15,85.21-65.77,171.19-130.42,257.92-193.96,43.34-31.75,86.95-63.27,130.75-94.52,43.8-31.24,87.78-62.2,131.94-92.87-178.37,120.05-355.7,241.71-531.95,364.97-15.48,10.82-30.93,21.67-46.39,32.52Z"/><path class="cls-9" d="m-210.11,1256.88c18.85-13.01,37.72-25.98,56.63-38.89,88.86-60.65,178.62-120.26,268.96-178.63-117.41,71.83-234.41,144.34-351.02,217.52h25.43Z"/><path class="cls-9" d="m-314.45,1237.19c88.42-55.22,177.68-109.45,267.47-162.5,92.66-54.75,185.95-108.3,279.85-160.63-183.27,97.26-365.71,196.15-547.31,296.61v26.52Z"/><path class="cls-9" d="m-314.45,1118.95v34.76c68.94-38.09,138.24-75.54,207.91-112.36,95.16-50.29,190.89-99.35,287.17-147.16,24.07-11.95,48.17-23.83,72.32-35.63,24.17-11.81,48.38-23.55,72.62-35.2,48.48-23.31,97.1-46.31,145.85-68.99-196.13,88.11-391.48,178-586.04,269.67-66.71,31.43-133.32,63.08-199.83,94.92Z"/><path class="cls-9" d="m-314.45,1050.1c32.23-14.96,64.52-29.8,96.86-44.49,97.99-44.5,196.63-87.78,295.65-129.75-131.13,51.96-261.97,104.71-392.51,158.23v16.01Z"/><path class="cls-9" d="m-314.45,928.68v23.79c8.35-3.19,16.71-6.39,25.07-9.56,50.31-19.1,100.72-37.88,151.23-56.33,50.51-18.45,101.11-36.57,151.92-54.4,101.56-35.64,203.52-69.98,305.84-102.99-205.67,62.61-410.8,127.09-615.37,193.42-6.23,2.02-12.45,4.06-18.68,6.08Z"/><path class="cls-9" d="m-314.45,857.97c122.76-37.29,246.01-72.71,369.64-106.22-123.37,30.37-246.58,61.42-369.64,93.12v13.11Z"/><path class="cls-9" d="m-314.45,771.92v26.16c45.14-11.49,90.35-22.76,135.63-33.76,209.19-50.84,419.25-96.29,630.68-136.48-211.73,37.43-423.16,76.76-634.24,118-44.04,8.6-88.06,17.31-132.07,26.08Z"/><path class="cls-9" d="m-314.45,707.68c11.12-2.02,22.23-4.03,33.35-6.02,105.91-18.94,212.2-36.56,318.51-52.83-117.35,15.15-234.64,30.91-351.86,47.22v11.63Z"/><path class="cls-9" d="m-314.45,642.09c27.94-3.62,55.9-7.15,83.86-10.58,213.78-26.23,427.92-47.11,642.26-62.62-242.16,14.11-484.21,30.65-726.11,49.62v23.58Z"/><path class="cls-9" d="m-314.45,491.26c30.46-.38,60.93-.66,91.38-.82,53.8-.29,107.58-.24,161.34.13,26.88.19,53.76.46,80.63.82,26.89.36,53.81.8,80.7,1.33-138.04-5.72-276.03-10.63-414.05-14.77v13.32Z"/><path class="cls-9" d="m-314.45,401.64v22.6c17.93.7,35.85,1.43,53.77,2.21,53.75,2.34,107.47,5.01,161.15,8.02,53.67,3.01,107.32,6.35,161.04,10.04,107.37,7.38,214.59,16.1,321.62,26.16-213.73-23.26-427.69-44.61-641.86-64.05-18.57-1.69-37.15-3.34-55.73-4.99Z"/><path class="cls-9" d="m-314.45,272.97c.23.04.46.07.69.11,53.2,8.3,106.33,16.93,159.39,25.89,106.12,17.92,211.94,37.18,317.44,57.76-158.92-34.4-318.1-67.7-477.52-99.94v16.18Z"/><path class="cls-9" d="m-314.45,179.34v26.85c45.4,9.39,90.75,19.02,136.06,28.92,105.15,22.96,209.95,47.24,314.36,72.83,26.1,6.4,52.18,12.88,78.24,19.44,26.09,6.57,52.16,13.22,78.2,19.96,52.08,13.47,104.07,27.27,155.95,41.39-206.7-59.21-413.96-116.56-621.75-172.04-46.99-12.55-94.01-24.98-141.05-37.34Z"/><path class="cls-9" d="m-314.45,115.49c24.78,6.83,49.53,13.73,74.26,20.71,103.54,29.22,206.85,59.8,309.59,91.62-127.7-42.89-255.65-85.06-383.84-126.52v14.19Z"/><path class="cls-9" d="m-314.45-5.38v26.47c19.97,6.92,39.93,13.87,59.86,20.88C-153.03,77.7-52.13,114.65,48.47,152.93c100.6,38.29,200.65,77.83,300.14,118.61C151.06,186.69-47.27,103.62-246.37,22.32c-22.68-9.26-45.38-18.49-68.08-27.71Z"/><path class="cls-9" d="m-314.45-79.76C-164.25-16.6-15.35,49.39,132.04,118.11-16.27,44.7-165.1-27.68-314.45-99.04v19.28Z"/><path class="cls-9" d="m-314.45-149.02c38.27,18.02,76.5,36.24,114.62,54.65,48.49,23.42,96.81,47.13,144.97,71.14C41.45,24.78,137.09,73.98,232.05,124.35c95,50.39,189.46,102.04,283.13,154.79C329.22,171.21,142.28,64.95-45.63-39.65c-82.8-46.09-165.76-91.81-248.88-137.22h-19.94v27.85Z"/><path class="cls-9" d="m-92.61-137.11C.63-83.24,93.14-28.24,184.88,27.88,78.08-40.94-29.11-109.18-136.66-176.88h-25.29c23.14,13.18,46.25,26.43,69.34,39.77Z"/><path class="cls-9" d="m-8.73-158.1C171.51-40.32,348.42,81.72,522.45,208.33,350.37,79.44,177.08-47.96,2.69-173.78c-1.43-1.03-2.87-2.06-4.3-3.09h-35.95c9.62,6.25,19.23,12.5,28.83,18.78Z"/><path class="cls-9" d="m334.69-112.04c19.28,18.72,38.5,37.5,57.66,56.34,19.19,18.86,38.31,37.79,57.37,56.77,38.12,37.96,76,76.14,113.62,114.56C470.13,17.61,376.36-79.89,282.03-176.88h-14.61c22.5,21.54,44.94,43.14,67.28,64.83Z"/><path class="cls-9" d="m480.35-168.83c63.32,86.85,125.66,174.69,186.78,263.12-60.87-90.66-122.16-181.04-183.86-271.16h-8.8c1.96,2.68,3.93,5.36,5.88,8.04Z"/><path class="cls-9" d="m789.15,53.29c-27.57-76.81-55.41-153.53-83.51-230.16h-5c30.26,76.46,59.77,153.19,88.52,230.16Z"/><path class="cls-9" d="m839.39,4.13c-13.91-60.37-28-120.7-42.22-181.01h-3.52c15.68,60.2,30.94,120.53,45.75,181.01Z"/><path class="cls-9" d="m1040.66-176.88c-5.1,62.53-10.64,125.01-16.65,187.43,6.87-62.45,13.55-124.93,20.09-187.43h-3.44Z"/><path class="cls-9" d="m1224.71-176.88c-26.4,78.53-53.55,156.77-81.45,234.7,29.11-78.12,57.94-156.36,86.5-234.7h-5.05Z"/><path class="cls-9" d="m1324.71-176.88c-36.27,76.9-73.31,153.44-111.14,229.65,39.24-76.4,78.2-152.96,116.9-229.65h-5.77Z"/><path class="cls-9" d="m1491.07-176.88c-58.92,85.4-118.86,170.09-179.88,254.09,63.23-84.41,126.08-169.11,188.58-254.09h-8.7Z"/><path class="cls-9" d="m1698.03-176.88c-39.79,41.9-79.83,83.53-120.15,124.86-37.51,38.46-75.32,76.74-113.37,114.78-38.04,38.03-76.31,75.82-114.81,113.35,123.07-116.79,245.31-234.46,366.75-352.99h-18.42Z"/><path class="cls-9" d="m1914.36-176.88c-135.17,111.97-272.73,221.25-412.21,327.47,146.93-108.03,293.05-217.2,438.36-327.47h-26.15Z"/><path class="cls-9" d="m2051.48-176.88c-14.62,10.73-29.26,21.44-43.92,32.11-43.51,31.65-87.21,63.02-131.08,94.1-43.87,31.08-87.93,61.88-132.25,92.44,110.28-72.31,220.09-145.18,329.5-218.66h-22.24Z"/><path class="cls-9" d="m2154.89-176.88c-64.34,43.62-129.05,86.64-194.11,129.04-90.17,58.76-180.9,116.29-272.52,172.75-91.61,56.46-183.89,111.74-276.8,165.81,187.19-105.73,373.45-213.16,558.77-322.27,81.71-48.11,163.23-96.57,244.57-145.33h-59.91Z"/><path class="cls-9" d="m2234.45-92.52v-20.45c-144.82,84.89-291.22,166.89-439.13,245.93,146.88-74.14,293.25-149.31,439.13-225.48Z"/><path class="cls-9" d="m2234.45-31.4c-60.04,30.99-120.34,61.52-180.8,91.53-96.4,47.85-193.35,94.44-290.81,139.78-97.52,45.36-195.7,89.51-294.3,132.36C1725.09,224.91,1980.44,114.52,2234.45,1.18V-31.4Z"/><path class="cls-9" d="m2234.45,160.55v-16.64c-148.01,54.54-296.96,106.31-446.77,155.26,149.21-45.22,298.13-91.44,446.77-138.63Z"/><path class="cls-9" d="m2234.45,217.08c-28.23,8.69-56.49,17.29-84.79,25.79-206.24,61.91-413.57,118.47-622.58,169.84,209.52-48.28,418.67-98.47,627.31-150.53,26.7-6.66,53.38-13.36,80.06-20.08v-25.02Z"/><path class="cls-9" d="m2234.45,373.05c-21.22,3.84-42.44,7.64-63.68,11.37-26.52,4.66-53.05,9.24-79.58,13.73-106.15,17.97-212.46,34.59-318.9,49.87,154.15-18.9,308.22-38.81,462.17-59.7v-15.27Z"/><path class="cls-9" d="m2234.45,438.23c-33.17,4.28-66.35,8.45-99.54,12.48-213.81,25.92-427.92,46.47-642.34,61.67,247.45-14.15,494.74-30.85,741.88-50.07v-24.08Z"/><path class="cls-9" d="m2234.45,534.11v-10.66c-110.33,6.92-220.67,12.44-331,16.55,110.33-1.46,220.67-3.43,331-5.89Z"/></g><path class="cls-7" d="m-19.41,950.79c46.97-65.42,104.42-141.76,191.94-147.72,22.25-1.51,44.64,1.49,65.69,8.85,21.57,7.54,40.54,20.16,58.08,34.6,16.84,13.87,32.59,29.01,49.83,42.39,16.99,13.2,35.29,24,55.6,31.26,41.31,14.76,86.1,15.01,129.42,14.22,44.18-.8,88.84-3.01,132.41,5.99,75.66,15.62,141.32,58.97,203.53,102.74,63.26,44.52,125.89,92.14,198.63,120.31,8.81,3.41,17.73,6.49,26.76,9.25-.4-3.05-.8-6.09-1.19-9.14-3.36,1.66-6.72,3.32-10.08,4.98-5.77,2.85-.71,11.48,5.05,8.63,3.36-1.66,6.72-3.32,10.08-4.98,4.03-1.99,2.67-7.96-1.19-9.14-75.83-23.17-140.92-70.33-204.83-115.69s-127.83-90.63-203.14-111.53c-41.66-11.56-84.45-12.8-127.42-12.01-45.04.83-91.21,3.57-135.37-7.29-21.65-5.33-41.96-14.18-60.36-26.8-18.39-12.62-34.64-28.02-51.5-42.54-16.83-14.5-34.49-28.44-54.7-37.96-20.23-9.53-42.17-15.02-64.5-16.27-42.89-2.39-84.08,12.34-118.32,37.66-33.32,24.64-59.99,56.85-84.62,89.87-6.23,8.35-12.34,16.8-18.42,25.26-3.76,5.24,4.91,10.23,8.63,5.05h0Z"/><path class="cls-1" d="m-31.84,874.36c79.5-94.4,207.47-138.23,327.98-110.82,62.32,14.18,117.03,45.92,163.15,89.73,43.81,41.63,81.56,90.19,131.74,124.71,108.32,74.52,246.45,73.64,372.31,66.81,69.37-3.76,138.53-7.84,208.03-5.06,66.71,2.67,133.22,10.12,198.88,22.2,130.3,23.98,257.28,66.17,375.83,125.37,14.58,7.28,29.02,14.84,43.35,22.61.71.38,1.34-.7.63-1.08-116.59-63.29-241.98-109.96-371.55-138.44-132.19-29.05-266.4-37.21-401.35-29.89-134.42,7.3-280.18,20.23-402.18-49.02-56.02-31.8-96.81-81.39-141.71-126.32-43.09-43.12-91.97-77.42-150.59-95.77-113.09-35.41-238.28-7.21-325.6,72.87-10.62,9.74-20.52,20.18-29.8,31.2-.52.61.36,1.5.88.88h0Z"/><path class="cls-1" d="m2057.67,254.68c-69.09-67.76-163.83-107.82-260.52-110.95s-185.02,33.53-269.92,73.31c-85.37,40-171.15,86.09-265.68,99.57-49.93,7.12-100.47,3.5-148.85-10.85s-96.09-39.61-137.83-70.17c-89.17-65.29-154.97-156.18-216.28-246.74-7.5-11.07-14.95-22.18-22.4-33.29-.45-.66-1.53-.04-1.08.63,60.55,90.26,122.2,182.39,205.38,253.69,75.54,64.75,170.46,112.14,271.7,111.66,93.46-.44,180.68-39.48,263.58-78.74,86.67-41.04,174.99-86.37,271.83-96.16,100.4-10.15,204.13,21.49,282.43,85,9.3,7.54,18.2,15.54,26.74,23.92.57.56,1.46-.32.88-.88h0Z"/><path class="cls-7" d="m2022.98,257.66c-87.87,28.3-175.08-24.37-242.54-75.76-35.12-26.75-69.14-55.18-106.85-78.31-37.91-23.26-79.45-39.59-123.54-46.19-44.23-6.62-89.72-4.32-132.91,7.46s-84.18,34.58-122.89,58.38c-74.75,45.94-161.32,105.52-253.87,81.94-38.43-9.79-73.46-33.45-96.38-65.89-24.57-34.77-34.82-79.03-28.74-121.14,1.51-10.48,4.09-20.76,7.51-30.78,2.09-6.1-7.57-8.72-9.64-2.66-14.01,40.98-12.4,86.77,4.22,126.75,15.6,37.54,44.48,68.6,80.29,87.73,38.26,20.44,81.66,25.09,124.04,17.15,46.69-8.75,89.71-30.88,130.07-55.15,39.9-24,78.55-50.5,121.12-69.71s88.96-28.8,135.75-27.73,92.35,12.51,133.71,33.67c40.66,20.8,76.61,49.31,112.51,77.23,67.73,52.66,148.18,110.55,239.1,99.55,10.79-1.31,21.37-3.59,31.71-6.92,6.1-1.96,3.49-11.62-2.66-9.64h0Z"/><path class="cls-1" d="m687.03,101.03l-43.13-43.13-43.13,43.13,43.13,43.13,43.13-43.13Zm-71.3,0l28.17-28.17,28.17,28.17-28.17,28.17-28.17-28.17Z"/><path class="cls-5" d="m1653.8,540.52c-18.98,0-18.98-20-37.97-20s-18.99,20-37.97,20-18.99-20-37.97-20-18.99,20-37.97,20-18.99-20-37.97-20-18.99,20-37.98,20-18.99-20-37.98-20"/><path class="cls-5" d="m228.07,383.22c-18.98,0-18.98-20-37.97-20s-18.99,20-37.97,20-18.99-20-37.97-20-18.99,20-37.97,20-18.99-20-37.97-20-18.99,20-37.98,20-18.99-20-37.98-20"/><path class="cls-7" d="m575.95,257.21c0-2.57,2.08-4.65,4.65-4.65s4.65,2.08,4.65,4.65-2.08,4.65-4.65,4.65-4.65-2.08-4.65-4.65Z"/><path class="cls-7" d="m545.14,257.21c0-2.57,2.08-4.65,4.65-4.65s4.65,2.08,4.65,4.65-2.08,4.65-4.65,4.65-4.65-2.08-4.65-4.65Z"/><path class="cls-7" d="m514.34,257.21c0-2.57,2.08-4.65,4.65-4.65s4.65,2.08,4.65,4.65-2.08,4.65-4.65,4.65-4.65-2.08-4.65-4.65Z"/><path class="cls-7" d="m483.54,257.21c0-2.57,2.08-4.65,4.65-4.65s4.65,2.08,4.65,4.65-2.08,4.65-4.65,4.65-4.65-2.08-4.65-4.65Z"/><path class="cls-7" d="m452.73,257.21c0-2.57,2.08-4.65,4.65-4.65s4.65,2.08,4.65,4.65-2.08,4.65-4.65,4.65-4.65-2.08-4.65-4.65Z"/><path class="cls-7" d="m421.93,257.21c0-2.57,2.08-4.65,4.65-4.65s4.65,2.08,4.65,4.65-2.08,4.65-4.65,4.65-4.65-2.08-4.65-4.65Z"/><path class="cls-7" d="m391.13,257.21c0-2.57,2.08-4.65,4.65-4.65s4.65,2.08,4.65,4.65-2.08,4.65-4.65,4.65-4.65-2.08-4.65-4.65Z"/><path class="cls-7" d="m360.32,257.21c0-2.57,2.08-4.65,4.65-4.65s4.65,2.08,4.65,4.65-2.08,4.65-4.65,4.65-4.65-2.08-4.65-4.65Z"/><path class="cls-7" d="m329.52,257.21c0-2.57,2.08-4.65,4.65-4.65s4.65,2.08,4.65,4.65-2.08,4.65-4.65,4.65-4.65-2.08-4.65-4.65Z"/><circle class="cls-7" cx="564.99" cy="232.83" r="4.65"/><path class="cls-7" d="m529.54,232.83c0-2.57,2.08-4.65,4.65-4.65s4.65,2.08,4.65,4.65-2.08,4.65-4.65,4.65-4.65-2.08-4.65-4.65Z"/><path class="cls-7" d="m498.73,232.83c0-2.57,2.08-4.65,4.65-4.65s4.65,2.08,4.65,4.65-2.08,4.65-4.65,4.65-4.65-2.08-4.65-4.65Z"/><path class="cls-7" d="m467.93,232.83c0-2.57,2.08-4.65,4.65-4.65s4.65,2.08,4.65,4.65-2.08,4.65-4.65,4.65-4.65-2.08-4.65-4.65Z"/><circle class="cls-7" cx="441.78" cy="232.83" r="4.65"/><circle class="cls-7" cx="410.98" cy="232.83" r="4.65"/><path class="cls-7" d="m375.52,232.83c0-2.57,2.08-4.65,4.65-4.65s4.65,2.08,4.65,4.65-2.08,4.65-4.65,4.65-4.65-2.08-4.65-4.65Z"/><path class="cls-7" d="m344.72,232.83c0-2.57,2.08-4.65,4.65-4.65s4.65,2.08,4.65,4.65-2.08,4.65-4.65,4.65-4.65-2.08-4.65-4.65Z"/><path class="cls-7" d="m313.91,232.83c0-2.57,2.08-4.65,4.65-4.65s4.65,2.08,4.65,4.65-2.08,4.65-4.65,4.65-4.65-2.08-4.65-4.65Z"/><path class="cls-1" d="m640,309.03c0-2.57,2.08-4.65,4.65-4.65s4.65,2.08,4.65,4.65-2.08,4.65-4.65,4.65-4.65-2.08-4.65-4.65Z"/><path class="cls-1" d="m609.2,309.03c0-2.57,2.08-4.65,4.65-4.65s4.65,2.08,4.65,4.65-2.08,4.65-4.65,4.65-4.65-2.08-4.65-4.65Z"/><path class="cls-1" d="m578.39,309.03c0-2.57,2.08-4.65,4.65-4.65s4.65,2.08,4.65,4.65-2.08,4.65-4.65,4.65-4.65-2.08-4.65-4.65Z"/><path class="cls-1" d="m547.59,309.03c0-2.57,2.08-4.65,4.65-4.65s4.65,2.08,4.65,4.65-2.08,4.65-4.65,4.65-4.65-2.08-4.65-4.65Z"/><path class="cls-1" d="m516.79,309.03c0-2.57,2.08-4.65,4.65-4.65s4.65,2.08,4.65,4.65-2.08,4.65-4.65,4.65-4.65-2.08-4.65-4.65Z"/><path class="cls-1" d="m485.98,309.03c0-2.57,2.08-4.65,4.65-4.65s4.65,2.08,4.65,4.65-2.08,4.65-4.65,4.65-4.65-2.08-4.65-4.65Z"/><path class="cls-1" d="m455.18,309.03c0-2.57,2.08-4.65,4.65-4.65s4.65,2.08,4.65,4.65-2.08,4.65-4.65,4.65-4.65-2.08-4.65-4.65Z"/><path class="cls-1" d="m424.38,309.03c0-2.57,2.08-4.65,4.65-4.65s4.65,2.08,4.65,4.65-2.08,4.65-4.65,4.65-4.65-2.08-4.65-4.65Z"/><path class="cls-1" d="m393.57,309.03c0-2.57,2.08-4.65,4.65-4.65s4.65,2.08,4.65,4.65-2.08,4.65-4.65,4.65-4.65-2.08-4.65-4.65Z"/><circle class="cls-1" cx="629.05" cy="284.65" r="4.65"/><path class="cls-1" d="m593.59,284.65c0-2.57,2.08-4.65,4.65-4.65s4.65,2.08,4.65,4.65-2.08,4.65-4.65,4.65-4.65-2.08-4.65-4.65Z"/><path class="cls-1" d="m562.79,284.65c0-2.57,2.08-4.65,4.65-4.65s4.65,2.08,4.65,4.65-2.08,4.65-4.65,4.65-4.65-2.08-4.65-4.65Z"/><path class="cls-1" d="m531.98,284.65c0-2.57,2.08-4.65,4.65-4.65s4.65,2.08,4.65,4.65-2.08,4.65-4.65,4.65-4.65-2.08-4.65-4.65Z"/><circle class="cls-1" cx="505.83" cy="284.65" r="4.65"/><circle class="cls-1" cx="475.03" cy="284.65" r="4.65"/><path class="cls-1" d="m439.57,284.65c0-2.57,2.08-4.65,4.65-4.65s4.65,2.08,4.65,4.65-2.08,4.65-4.65,4.65-4.65-2.08-4.65-4.65Z"/><path class="cls-1" d="m408.77,284.65c0-2.57,2.08-4.65,4.65-4.65s4.65,2.08,4.65,4.65-2.08,4.65-4.65,4.65-4.65-2.08-4.65-4.65Z"/><path class="cls-1" d="m377.97,284.65c0-2.57,2.08-4.65,4.65-4.65s4.65,2.08,4.65,4.65-2.08,4.65-4.65,4.65-4.65-2.08-4.65-4.65Z"/><path class="cls-7" d="m1908.36,913.98c0-2.57,2.08-4.65,4.65-4.65s4.65,2.08,4.65,4.65-2.08,4.65-4.65,4.65-4.65-2.08-4.65-4.65Z"/><path class="cls-7" d="m1877.56,913.98c0-2.57,2.08-4.65,4.65-4.65s4.65,2.08,4.65,4.65-2.08,4.65-4.65,4.65-4.65-2.08-4.65-4.65Z"/><path class="cls-7" d="m1846.75,913.98c0-2.57,2.08-4.65,4.65-4.65s4.65,2.08,4.65,4.65-2.08,4.65-4.65,4.65-4.65-2.08-4.65-4.65Z"/><path class="cls-7" d="m1815.95,913.98c0-2.57,2.08-4.65,4.65-4.65s4.65,2.08,4.65,4.65-2.08,4.65-4.65,4.65-4.65-2.08-4.65-4.65Z"/><path class="cls-7" d="m1785.15,913.98c0-2.57,2.08-4.65,4.65-4.65s4.65,2.08,4.65,4.65-2.08,4.65-4.65,4.65-4.65-2.08-4.65-4.65Z"/><path class="cls-7" d="m1754.34,913.98c0-2.57,2.08-4.65,4.65-4.65s4.65,2.08,4.65,4.65-2.08,4.65-4.65,4.65-4.65-2.08-4.65-4.65Z"/><path class="cls-7" d="m1723.54,913.98c0-2.57,2.08-4.65,4.65-4.65s4.65,2.08,4.65,4.65-2.08,4.65-4.65,4.65-4.65-2.08-4.65-4.65Z"/><path class="cls-7" d="m1892.75,889.59c0-2.57,2.08-4.65,4.65-4.65s4.65,2.08,4.65,4.65-2.08,4.65-4.65,4.65-4.65-2.08-4.65-4.65Z"/><path class="cls-7" d="m1861.95,889.59c0-2.57,2.08-4.65,4.65-4.65s4.65,2.08,4.65,4.65-2.08,4.65-4.65,4.65-4.65-2.08-4.65-4.65Z"/><circle class="cls-7" cx="1835.8" cy="889.59" r="4.65"/><circle class="cls-7" cx="1805" cy="889.59" r="4.65"/><path class="cls-7" d="m1769.54,889.59c0-2.57,2.08-4.65,4.65-4.65s4.65,2.08,4.65,4.65-2.08,4.65-4.65,4.65-4.65-2.08-4.65-4.65Z"/><path class="cls-7" d="m1738.74,889.59c0-2.57,2.08-4.65,4.65-4.65s4.65,2.08,4.65,4.65-2.08,4.65-4.65,4.65-4.65-2.08-4.65-4.65Z"/><path class="cls-7" d="m1707.93,889.59c0-2.57,2.08-4.65,4.65-4.65s4.65,2.08,4.65,4.65-2.08,4.65-4.65,4.65-4.65-2.08-4.65-4.65Z"/><path class="cls-1" d="m1910.81,965.8c0-2.57,2.08-4.65,4.65-4.65s4.65,2.08,4.65,4.65-2.08,4.65-4.65,4.65-4.65-2.08-4.65-4.65Z"/><path class="cls-1" d="m1880,965.8c0-2.57,2.08-4.65,4.65-4.65s4.65,2.08,4.65,4.65-2.08,4.65-4.65,4.65-4.65-2.08-4.65-4.65Z"/><path class="cls-1" d="m1849.2,965.8c0-2.57,2.08-4.65,4.65-4.65s4.65,2.08,4.65,4.65-2.08,4.65-4.65,4.65-4.65-2.08-4.65-4.65Z"/><path class="cls-1" d="m1818.4,965.8c0-2.57,2.08-4.65,4.65-4.65s4.65,2.08,4.65,4.65-2.08,4.65-4.65,4.65-4.65-2.08-4.65-4.65Z"/><path class="cls-1" d="m1787.59,965.8c0-2.57,2.08-4.65,4.65-4.65s4.65,2.08,4.65,4.65-2.08,4.65-4.65,4.65-4.65-2.08-4.65-4.65Z"/><circle class="cls-1" cx="1899.85" cy="941.42" r="4.65"/><circle class="cls-1" cx="1869.05" cy="941.42" r="4.65"/><path class="cls-1" d="m1833.59,941.42c0-2.57,2.08-4.65,4.65-4.65s4.65,2.08,4.65,4.65-2.08,4.65-4.65,4.65-4.65-2.08-4.65-4.65Z"/><path class="cls-1" d="m1802.79,941.42c0-2.57,2.08-4.65,4.65-4.65s4.65,2.08,4.65,4.65-2.08,4.65-4.65,4.65-4.65-2.08-4.65-4.65Z"/><path class="cls-1" d="m1771.99,941.42c0-2.57,2.08-4.65,4.65-4.65s4.65,2.08,4.65,4.65-2.08,4.65-4.65,4.65-4.65-2.08-4.65-4.65Z"/><circle class="cls-1" cx="344.46" cy="805.97" r="109.45"/><circle class="cls-3" cx="406.15" cy="760.2" r="109.45"/><circle class="cls-3" cx="1698.74" cy="294.04" r="81.42"/><polygon class="cls-1" points="1715.68 291.59 1703.54 291.59 1703.54 279.45 1695.73 279.45 1695.73 291.59 1683.59 291.59 1683.59 299.4 1695.73 299.4 1695.73 311.54 1703.54 311.54 1703.54 299.4 1715.68 299.4 1715.68 291.59"/><path class="cls-1" d="m1140.48,906.7l-66.52-66.52-66.52,66.52,66.52,66.52,66.52-66.52Zm-109.97,0l43.44-43.44,43.44,43.44-43.44,43.44-43.44-43.44Z"/><polygon class="cls-1" points="219 114 202.18 114 202.18 97.18 191.37 97.18 191.37 114 174.55 114 174.55 124.81 191.37 124.81 191.37 141.63 202.18 141.63 202.18 124.81 219 124.81 219 114"/><polygon class="cls-1" points="1380.55 870.82 1376.46 870.82 1376.46 866.73 1373.83 866.73 1373.83 870.82 1369.74 870.82 1369.74 873.45 1373.83 873.45 1373.83 877.54 1376.46 877.54 1376.46 873.45 1380.55 873.45 1380.55 870.82"/><polygon class="cls-1" points="877.37 957.25 873.28 957.25 873.28 953.16 870.65 953.16 870.65 957.25 866.56 957.25 866.56 959.88 870.65 959.88 870.65 963.97 873.28 963.97 873.28 959.88 877.37 959.88 877.37 957.25"/><polygon class="cls-1" points="534.62 415.89 528.48 415.89 528.48 409.74 524.53 409.74 524.53 415.89 518.39 415.89 518.39 419.84 524.53 419.84 524.53 425.98 528.48 425.98 528.48 419.84 534.62 419.84 534.62 415.89"/><polygon class="cls-1" points="91 469.69 84.86 469.69 84.86 463.55 80.91 463.55 80.91 469.69 74.77 469.69 74.77 473.64 80.91 473.64 80.91 479.79 84.86 479.79 84.86 473.64 91 473.64 91 469.69"/><polygon class="cls-1" points="1214.87 52.02 1208.73 52.02 1208.73 45.88 1204.78 45.88 1204.78 52.02 1198.64 52.02 1198.64 55.97 1204.78 55.97 1204.78 62.11 1208.73 62.11 1208.73 55.97 1214.87 55.97 1214.87 52.02"/><polygon class="cls-1" points="1827.24 466.7 1821.1 466.7 1821.1 460.55 1817.15 460.55 1817.15 466.7 1811.01 466.7 1811.01 470.65 1817.15 470.65 1817.15 476.79 1821.1 476.79 1821.1 470.65 1827.24 470.65 1827.24 466.7"/><polygon class="cls-1" points="1081.16 905.35 1077.07 905.35 1077.07 901.26 1074.44 901.26 1074.44 905.35 1070.35 905.35 1070.35 907.98 1074.44 907.98 1074.44 912.07 1077.07 912.07 1077.07 907.98 1081.16 907.98 1081.16 905.35"/><polygon class="cls-1" points="728.18 181.4 724.09 181.4 724.09 177.31 721.46 177.31 721.46 181.4 717.37 181.4 717.37 184.03 721.46 184.03 721.46 188.12 724.09 188.12 724.09 184.03 728.18 184.03 728.18 181.4"/><polygon class="cls-1" points="1085.84 422.8 1081.75 422.8 1081.75 418.71 1079.12 418.71 1079.12 422.8 1075.02 422.8 1075.02 425.43 1079.12 425.43 1079.12 429.52 1081.75 429.52 1081.75 425.43 1085.84 425.43 1085.84 422.8"/><polygon class="cls-1" points="1474.6 187.65 1470.51 187.65 1470.51 183.56 1467.88 183.56 1467.88 187.65 1463.79 187.65 1463.79 190.28 1467.88 190.28 1467.88 194.37 1470.51 194.37 1470.51 190.28 1474.6 190.28 1474.6 187.65"/><polygon class="cls-1" points="1856.5 296.22 1852.4 296.22 1852.4 292.13 1849.77 292.13 1849.77 296.22 1845.68 296.22 1845.68 298.85 1849.77 298.85 1849.77 302.94 1852.4 302.94 1852.4 298.85 1856.5 298.85 1856.5 296.22"/><polygon class="cls-1" points="1851.14 62.16 1847.05 62.16 1847.05 58.07 1844.42 58.07 1844.42 62.16 1840.33 62.16 1840.33 64.79 1844.42 64.79 1844.42 68.88 1847.05 68.88 1847.05 64.79 1851.14 64.79 1851.14 62.16"/><polygon class="cls-1" points="1155.4 251.88 1151.31 251.88 1151.31 247.79 1148.68 247.79 1148.68 251.88 1144.59 251.88 1144.59 254.51 1148.68 254.51 1148.68 258.6 1151.31 258.6 1151.31 254.51 1155.4 254.51 1155.4 251.88"/><polygon class="cls-1" points="1381.17 339.18 1377.08 339.18 1377.08 335.09 1374.45 335.09 1374.45 339.18 1370.36 339.18 1370.36 341.81 1374.45 341.81 1374.45 345.9 1377.08 345.9 1377.08 341.81 1381.17 341.81 1381.17 339.18"/><polygon class="cls-1" points="394.74 981.41 390.65 981.41 390.65 977.32 388.02 977.32 388.02 981.41 383.92 981.41 383.92 984.04 388.02 984.04 388.02 988.13 390.65 988.13 390.65 984.04 394.74 984.04 394.74 981.41"/><polygon class="cls-1" points="480.94 120.2 476.85 120.2 476.85 116.11 474.22 116.11 474.22 120.2 470.13 120.2 470.13 122.83 474.22 122.83 474.22 126.92 476.85 126.92 476.85 122.83 480.94 122.83 480.94 120.2"/><polygon class="cls-1" points="580.55 818.13 576.46 818.13 576.46 814.04 573.83 814.04 573.83 818.13 569.74 818.13 569.74 820.76 573.83 820.76 573.83 824.85 576.46 824.85 576.46 820.76 580.55 820.76 580.55 818.13"/><polygon class="cls-1" points="1449.24 994.77 1445.14 994.77 1445.14 990.68 1442.51 990.68 1442.51 994.77 1438.42 994.77 1438.42 997.4 1442.51 997.4 1442.51 1001.49 1445.14 1001.49 1445.14 997.4 1449.24 997.4 1449.24 994.77"/><polygon class="cls-1" points="203.36 689.16 199.27 689.16 199.27 685.07 196.64 685.07 196.64 689.16 192.55 689.16 192.55 691.79 196.64 691.79 196.64 695.88 199.27 695.88 199.27 691.79 203.36 691.79 203.36 689.16"/><polygon class="cls-1" points="312.56 560.46 308.47 560.46 308.47 556.37 305.84 556.37 305.84 560.46 301.75 560.46 301.75 563.09 305.84 563.09 305.84 567.18 308.47 567.18 308.47 563.09 312.56 563.09 312.56 560.46"/></g></g></g></g></svg>