<?xml version="1.0" encoding="UTF-8"?><svg xmlns="http://www.w3.org/2000/svg" xmlns:xlink="http://www.w3.org/1999/xlink" viewBox="0 0 2804.46 2800"><defs><style>.cls-1{fill:url(#linear-gradient-2);}.cls-2{fill:url(#linear-gradient-51);}.cls-3,.cls-4,.cls-5,.cls-6,.cls-7,.cls-8,.cls-9,.cls-10,.cls-11,.cls-12,.cls-13,.cls-14{fill:#fff;}.cls-15{fill:url(#linear-gradient-17);}.cls-4{opacity:.47;}.cls-16{fill:url(#linear-gradient-43);}.cls-5{opacity:.38;}.cls-17{fill:url(#linear-gradient-15);}.cls-18{fill:url(#linear-gradient-18);}.cls-19{fill:url(#linear-gradient-40);}.cls-20{fill:url(#linear-gradient-28);}.cls-21{fill:url(#linear-gradient-14);}.cls-22{fill:url(#linear-gradient-36);}.cls-23{fill:url(#linear-gradient-20);}.cls-24{fill:url(#linear-gradient-6);}.cls-6{opacity:.76;}.cls-25{fill:url(#linear-gradient-35);}.cls-26{fill:url(#linear-gradient-48);}.cls-27{fill:url(#linear-gradient-32);}.cls-28{fill:url(#linear-gradient-11);}.cls-29{fill:url(#linear-gradient-50);}.cls-7{opacity:.42;}.cls-30{fill:url(#linear-gradient-39);}.cls-31{fill:url(#linear-gradient-10);}.cls-32{fill:#91b3fa;}.cls-8{mix-blend-mode:soft-light;}.cls-33{fill:url(#linear-gradient-49);}.cls-34{fill:url(#linear-gradient-37);}.cls-35{fill:url(#linear-gradient-16);}.cls-36{fill:url(#linear-gradient-31);}.cls-9{opacity:.43;}.cls-37{fill:#7d97f4;}.cls-38{fill:url(#linear-gradient-41);}.cls-39{isolation:isolate;}.cls-39,.cls-40{fill:none;}.cls-40{opacity:.64;}.cls-41{fill:url(#linear-gradient-21);}.cls-10{opacity:.44;}.cls-42{fill:url(#linear-gradient-25);}.cls-43{fill:url(#linear-gradient-5);}.cls-44{fill:url(#linear-gradient-45);}.cls-45{fill:url(#linear-gradient-34);}.cls-11{opacity:.46;}.cls-46{fill:url(#linear-gradient-7);}.cls-47{fill:url(#linear-gradient-24);}.cls-12{opacity:.28;}.cls-48{fill:url(#linear-gradient-9);}.cls-49{fill:url(#linear-gradient-22);}.cls-50{fill:url(#linear-gradient-42);}.cls-51{fill:url(#linear-gradient-3);}.cls-13{opacity:.58;}.cls-52{fill:url(#linear-gradient);}.cls-14{opacity:.69;}.cls-53{fill:url(#linear-gradient-27);}.cls-54{fill:url(#linear-gradient-33);}.cls-55{fill:url(#linear-gradient-38);}.cls-56{fill:url(#linear-gradient-29);}.cls-57{fill:url(#linear-gradient-30);}.cls-58{fill:#bdd0fb;}.cls-59{fill:url(#linear-gradient-23);}.cls-60{fill:url(#linear-gradient-19);}.cls-61{fill:url(#linear-gradient-4);}.cls-62{fill:url(#linear-gradient-8);}.cls-63{fill:url(#linear-gradient-44);}.cls-64{fill:url(#linear-gradient-47);}.cls-65{fill:url(#linear-gradient-46);}.cls-66{fill:url(#linear-gradient-12);}.cls-67{fill:url(#linear-gradient-13);}.cls-68{fill:url(#linear-gradient-26);}</style><linearGradient id="linear-gradient" x1="3107.06" y1="3581" x2="673.96" y2="559.24" gradientUnits="userSpaceOnUse"><stop offset="0" stop-color="#dae3fe"/><stop offset="1" stop-color="#e9effd"/></linearGradient><linearGradient id="linear-gradient-2" x1="1485.12" y1="1999.19" x2="1485.12" y2="3210.54" gradientUnits="userSpaceOnUse"><stop offset="0" stop-color="#09005d"/><stop offset="1" stop-color="#1a0f91"/></linearGradient><linearGradient id="linear-gradient-3" x1="1401.14" y1="54.15" x2="1421.34" y2="2133.63" xlink:href="#linear-gradient-2"/><linearGradient id="linear-gradient-4" x1="1558.01" y1="1655.15" x2="1470.52" y2="2704.99" xlink:href="#linear-gradient-2"/><linearGradient id="linear-gradient-5" x1="1321.07" y1="1748.65" x2="2202.66" y2="1129.52" gradientUnits="userSpaceOnUse"><stop offset="0" stop-color="#ff928e"/><stop offset="1" stop-color="#fe7062"/></linearGradient><linearGradient id="linear-gradient-6" x1="2412.22" y1="2099.28" x2="2657.6" y2="1502.95" gradientTransform="translate(-51.04 10.83) rotate(-1.08)" xlink:href="#linear-gradient-2"/><linearGradient id="linear-gradient-7" x1="2181.07" y1="1465.78" x2="2392.33" y2="1942.78" gradientUnits="userSpaceOnUse"><stop offset="0" stop-color="#febbba"/><stop offset="1" stop-color="#ff928e"/></linearGradient><linearGradient id="linear-gradient-8" x1="2184.82" y1="1464.12" x2="2396.08" y2="1941.12" xlink:href="#linear-gradient-7"/><linearGradient id="linear-gradient-9" x1="2711.7" y1="2428.88" x2="2726.23" y2="2787.24" gradientUnits="userSpaceOnUse"><stop offset="0" stop-color="#4f52ff"/><stop offset="1" stop-color="#4042e2"/></linearGradient><linearGradient id="linear-gradient-10" x1="2420.21" y1="2990.92" x2="2512.77" y2="1909.11" xlink:href="#linear-gradient-7"/><linearGradient id="linear-gradient-11" x1="2463.69" y1="2400.41" x2="2441.9" y2="2795.09" xlink:href="#linear-gradient-9"/><linearGradient id="linear-gradient-12" x1="2606.41" y1="3007.02" x2="2698.99" y2="1924.92" xlink:href="#linear-gradient-7"/><linearGradient id="linear-gradient-13" x1="2571.83" y1="1710.18" x2="2292.33" y2="2100.77" xlink:href="#linear-gradient-5"/><linearGradient id="linear-gradient-14" x1="2726.37" y1="1902.05" x2="2228.44" y2="2573.51" xlink:href="#linear-gradient-9"/><linearGradient id="linear-gradient-15" x1="2410.06" y1="1924.57" x2="2427.45" y2="1797.37" xlink:href="#linear-gradient-7"/><linearGradient id="linear-gradient-16" x1="2318.15" y1="1627.15" x2="2301.8" y2="2029.54" xlink:href="#linear-gradient-7"/><linearGradient id="linear-gradient-17" x1="2135.47" y1="1623.69" x2="2120.24" y2="1998.55" xlink:href="#linear-gradient-7"/><linearGradient id="linear-gradient-18" x1="-5881.9" y1="2512.65" x2="-5765.46" y2="2646.52" gradientTransform="translate(8722.42 751.51) rotate(15.14)" xlink:href="#linear-gradient-7"/><linearGradient id="linear-gradient-19" x1="2289.47" y1="2055.68" x2="2537.03" y2="1454.03" gradientTransform="translate(-51.04 10.83) rotate(-1.08)" xlink:href="#linear-gradient-2"/><linearGradient id="linear-gradient-20" x1="-5852.81" y1="2487.35" x2="-5736.37" y2="2621.22" gradientTransform="translate(8722.42 751.51) rotate(15.14)" xlink:href="#linear-gradient-7"/><linearGradient id="linear-gradient-21" x1="718.47" y1="1470.74" x2="728.56" y2="1992.29" xlink:href="#linear-gradient-5"/><linearGradient id="linear-gradient-22" x1="707.73" y1="3456.12" x2="678.25" y2="2855.28" xlink:href="#linear-gradient-9"/><linearGradient id="linear-gradient-23" x1="1007.41" y1="860.92" x2="889.08" y2="1104.81" gradientTransform="translate(47.93 424.14) rotate(9.25)" xlink:href="#linear-gradient-2"/><linearGradient id="linear-gradient-24" x1="1071.17" y1="1186.4" x2="788.52" y2="1879.57" xlink:href="#linear-gradient-5"/><linearGradient id="linear-gradient-25" x1="511.34" y1="1915.44" x2="760.87" y2="2518.22" xlink:href="#linear-gradient-7"/><linearGradient id="linear-gradient-26" x1="-6026.32" y1="1914.14" x2="-5776.78" y2="2516.92" gradientTransform="translate(-5072.61) rotate(-180) scale(1 -1)" xlink:href="#linear-gradient-7"/><linearGradient id="linear-gradient-27" x1="732.99" y1="1993.34" x2="720.02" y2="2518.69" xlink:href="#linear-gradient-2"/><linearGradient id="linear-gradient-28" x1="894.32" y1="2282.26" x2="1030.68" y2="2282.26" gradientTransform="translate(6.02 20.3) rotate(.44)" xlink:href="#linear-gradient-2"/><linearGradient id="linear-gradient-29" x1="972.77" y1="2063.57" x2="828.83" y2="2453.46" xlink:href="#linear-gradient-7"/><linearGradient id="linear-gradient-30" x1="-6326.48" y1="2242.68" x2="-6190.06" y2="2242.68" gradientTransform="translate(-5728.54 -59.99) rotate(-178.85) scale(1 -1)" xlink:href="#linear-gradient-2"/><linearGradient id="linear-gradient-31" x1="684.38" y1="1946.08" x2="540.36" y2="2336.17" xlink:href="#linear-gradient-7"/><linearGradient id="linear-gradient-32" x1="1033.78" y1="2056.05" x2="659.58" y2="2337.14" xlink:href="#linear-gradient-9"/><linearGradient id="linear-gradient-33" x1="695.39" y1="2308.16" x2="597.32" y2="2058.08" xlink:href="#linear-gradient-9"/><linearGradient id="linear-gradient-34" x1="730.39" y1="1965.21" x2="727.07" y2="1676.32" xlink:href="#linear-gradient-7"/><linearGradient id="linear-gradient-35" x1="886.08" y1="1254.54" x2="896.43" y2="1003.16" gradientTransform="translate(47.93 424.14) rotate(9.25)" xlink:href="#linear-gradient-7"/><linearGradient id="linear-gradient-36" x1="1008.27" y1="826.59" x2="875.13" y2="1101.03" gradientTransform="translate(47.93 424.14) rotate(9.25)" xlink:href="#linear-gradient-2"/><linearGradient id="linear-gradient-37" x1="369.48" y1="2186.63" x2="385.69" y2="1792.7" gradientTransform="translate(30.41 -280.48) rotate(-7.64)" xlink:href="#linear-gradient-7"/><linearGradient id="linear-gradient-38" x1="2652.72" y1="1179.67" x2="2665.38" y2="1179.67" xlink:href="#linear-gradient-9"/><linearGradient id="linear-gradient-39" x1="2123.93" y1="1114.17" x2="2647.23" y2="1114.17" xlink:href="#linear-gradient-9"/><linearGradient id="linear-gradient-40" x1="2124.58" y1="936.06" x2="2131.97" y2="936.06" xlink:href="#linear-gradient-9"/><linearGradient id="linear-gradient-41" x1="2230.72" y1="722.76" x2="2243.86" y2="722.76" xlink:href="#linear-gradient-9"/><linearGradient id="linear-gradient-42" x1="2250.67" y1="813.06" x2="2753.07" y2="813.06" xlink:href="#linear-gradient-9"/><linearGradient id="linear-gradient-43" x1="2743.37" y1="998.56" x2="2751.15" y2="998.56" xlink:href="#linear-gradient-9"/><linearGradient id="linear-gradient-44" x1="2165.52" y1="961.33" x2="2706.29" y2="961.33" xlink:href="#linear-gradient-9"/><linearGradient id="linear-gradient-45" x1="2201.97" y1="790.29" x2="2214.65" y2="790.29" xlink:href="#linear-gradient-9"/><linearGradient id="linear-gradient-46" x1="1780.48" y1="740.05" x2="2196.05" y2="740.05" xlink:href="#linear-gradient-9"/><linearGradient id="linear-gradient-47" x1="1780.88" y1="595.8" x2="1788.25" y2="595.8" xlink:href="#linear-gradient-9"/><linearGradient id="linear-gradient-48" x1="1865.83" y1="423.91" x2="1879" y2="423.91" xlink:href="#linear-gradient-9"/><linearGradient id="linear-gradient-49" x1="1885.62" y1="494.27" x2="2284.75" y2="494.27" xlink:href="#linear-gradient-9"/><linearGradient id="linear-gradient-50" x1="2275.65" y1="644.08" x2="2283.4" y2="644.08" xlink:href="#linear-gradient-9"/><linearGradient id="linear-gradient-51" x1="1814.39" y1="615.16" x2="2246.68" y2="615.16" xlink:href="#linear-gradient-9"/></defs><g class="cls-39"><g id="Layer_2"><g id="Illustration"><path class="cls-52" d="m2437.7,2389.33c-55.89,58.84-108.77,96.78-150.55,126.76-491.11,352.38-1072.22,249.66-1195.73,224.58-182.38-37.04-534.9-108.64-789.77-408.36C-83.95,1878.84-23.9,1164.43,275.19,692.84c54.71-86.26,343.7-565.04,931.07-641.82,355.47-46.47,769.84,47.25,1069.91,298.65,629.88,527.71,585.04,1593.79,161.52,2039.65Z"/><path class="cls-32" d="m29.98,13.83c-2.59-11.02,12.92-18.35,22.41-10.65,96.42,78.19,328.09,312.32,270.35,721.49-72.44,513.36,51.4,700.68,205.56,814.94,0,0-211.7-53.73-344.9-243.81C-143.61,829.12,76.03,209.83,29.98,13.83Z"/><path class="cls-8" d="m103.36,174.18c12.06,57.15,22.81,114.47,31.12,172.06,8.66,57.53,15.29,115.27,19.83,173.1,4.28,57.84,7.31,115.74,7.48,173.67.47,57.92-1.93,115.8-4.59,173.9-2.28,58.08-4.95,116.58-.7,175.49,4.18,58.79,16.56,118.1,41.11,173.69,6.14,13.86,12.59,27.67,19.93,41.02,7.05,13.47,14.79,26.67,22.81,39.75,16.18,26.09,34.4,51.31,54.69,75.24,40.74,47.78,89.88,90.16,144.01,126.03,5.7,3.78,13.86,2.85,18.23-2.07,4.29-4.83,3.33-11.71-2.1-15.54l-.04-.03c-12.88-9.05-25.62-18.21-37.85-27.83-6.2-4.73-12.15-9.68-18.21-14.54-5.83-5.05-11.9-9.9-17.54-15.1-22.99-20.46-44.28-42.29-63.6-65.37-38.86-45.94-69.97-97.14-93.54-150.22-11.44-26.66-20.59-54-27.26-81.86-6.65-27.86-10.84-56.21-13.15-84.78-4.64-57.18-2.54-115.1-.75-173.19,1.71-58.11,2.96-116.5,1.42-174.86-.68-29.17-1.96-58.34-3.84-87.46-.85-14.57-2.02-29.12-3.16-43.67-1.3-14.54-2.7-29.07-4.23-43.59-6.26-58.07-14.57-115.95-24.98-173.52-10.73-57.53-23.23-114.79-38.26-171.54-.43-1.62-2.3-2.64-4.18-2.27-1.82.36-2.98,1.9-2.65,3.48Z"/><path class="cls-58" d="m279.76,1281.45c-11.82,12.54-32.61,8.94-39.72-6.76-39.24-86.63-128.04-341.61,18.62-635.36,123.85-248.06,167.43-394.33,182.61-462.11,3.21-14.33,22.85-16.23,28.78-2.8,65.41,148.25,238.11,652.52-190.28,1107.03Z"/><path class="cls-8" d="m258.28,1272.31c-.42.08-.85.11-1.3.1-3.72-.06-6.68-3.12-6.63-6.83.06-4.21,8.26-425.31,164.88-778,1.51-3.39,5.48-4.93,8.88-3.42,3.4,1.51,4.93,5.49,3.42,8.88-155.48,350.12-163.66,768.56-163.73,772.74-.05,3.27-2.43,5.96-5.53,6.52Z"/><polygon class="cls-1" points="1197.49 2053.27 1137.58 2590.59 1832.67 2590.59 1742.13 2053.27 1197.49 2053.27"/><path class="cls-51" d="m29.86,729.42v1230.61c0,101.23,80.67,184.02,181.87,186.63,449.48,11.59,2021.54,39.69,2449.41,33.39,73.54-1.08,133.11-59.93,135.24-133.45,8.25-285.89,21.65-973.35-27.94-1292.51-10.44-67.21-67.18-117.47-135.16-119.65-376.61-12.05-2043.09-50.3-2470.77-40.7-73.76,1.66-132.66,61.91-132.66,135.68Z"/><path class="cls-32" d="m107.08,723.43v1169.16c0,59.11,47.45,107.27,106.55,108.15l2385.96,29.48c58.59.88,106.62-46.26,106.84-104.86l3.99-1158.72c.16-41.9-33.22-76.23-75.11-77.25l-2442.78-49.35c-46.85-1.14-85.44,36.53-85.44,83.39Z"/><path class="cls-32" d="m2724.39,2078.49h-.06l-2617.31-44.59c-2.02-.04-3.64-1.7-3.6-3.72.03-2.03,1.64-3.57,3.73-3.6l2617.31,44.59c2.02.04,3.64,1.7,3.6,3.72-.03,2-1.67,3.6-3.66,3.6Z"/><path class="cls-61" d="m1982.39,2700.52h-1017.31c-27.64,0-48.39-19.67-43.05-40.81l13.05-51.63c3.93-15.53,21.01-26.92,41.29-27.56l980.73-30.6c21.19-.66,39.96,10.59,44.58,26.72l23.53,82.23c6.11,21.36-14.74,41.64-42.82,41.64Z"/><path class="cls-32" d="m1512.71,2594.87c-2,0-3.63-1.61-3.66-3.61-.03-2.03,1.59-3.69,3.61-3.72l42.03-.61h.06c2,0,3.63,1.61,3.66,3.61.03,2.02-1.59,3.69-3.61,3.72l-42.03.61h-.06Z"/><path class="cls-32" d="m959.7,2672.41c-.19,0-.39-.01-.58-.05-2-.32-3.36-2.2-3.04-4.19l5.99-37.55c3.25-20.35,20.56-35.33,41.16-35.64l445.74-6.52c1.93-.08,3.69,1.59,3.72,3.61.03,2.02-1.59,3.69-3.61,3.72l-445.74,6.52c-17.03.25-31.34,12.64-34.03,29.46l-5.99,37.55c-.29,1.8-1.84,3.09-3.61,3.09Z"/><path class="cls-10" d="m2190.72,1083.84h-265.21c-16.65,0-30.14-13.49-30.14-30.14s13.5-30.14,30.14-30.14h265.21c16.65,0,30.14,13.49,30.14,30.14s-13.5,30.14-30.14,30.14Z"/><path class="cls-9" d="m2288.33,1036.4h286.25c17.97,0,32.53,53.54,32.53,119.58v704.19c0,66.04-14.56,119.58-32.53,119.58h-286.25c-17.97,0-32.53-53.54-32.53-119.58v-704.19c0-66.04,14.57-119.58,32.53-119.58Z"/><path class="cls-11" d="m1925.51,1117.33h265.21c16.64,0,30.14,13.51,30.14,30.14v177.5c0,16.64-13.51,30.14-30.14,30.14h-265.21c-16.64,0-30.14-13.51-30.14-30.14v-177.5c0-16.64,13.51-30.14,30.14-30.14Z"/><path class="cls-5" d="m1925.51,1408.32h265.21c16.65,0,30.14,32.52,30.14,72.64v427.79c0,40.12-13.5,72.64-30.14,72.64h-265.21c-16.65,0-30.14-32.52-30.14-72.64v-427.79c0-40.12,13.49-72.64,30.14-72.64Z"/><path class="cls-7" d="m2603.79,986.25H227.98c-27.5,0-49.79-22.29-49.79-49.79v-198.15c0-27.99,23.07-50.49,51.05-49.78l2375.81,60.08c27,.68,48.53,22.77,48.53,49.78v138.08c0,27.5-22.29,49.79-49.79,49.79Z"/><rect class="cls-13" x="971.97" y="1045.15" width="873.54" height="755.82" rx="36.52" ry="36.52"/><path class="cls-12" d="m1843.24,1993.91l-1645.99-13.85c-19.96-.17-36.05-16.39-36.05-36.35v-58.07c0-27.76,22.5-50.27,50.27-50.27h1629.54c10.72,0,19.41,8.69,19.41,19.41v122.1c0,9.46-7.71,17.11-17.18,17.03Z"/><rect class="cls-4" x="161.21" y="1023.55" width="759.98" height="759.98" rx="34.41" ry="34.41"/><path class="cls-43" d="m1394.49,1102.2l778.48-6.98c15.27-.14,27.69,12.25,27.6,27.51l-3.41,597.37c-.09,15.37-12.78,27.65-28.14,27.19-140.75-4.2-765.66-22.71-793.25-21.56-27.26,1.14-12.45-478.74-8.38-597.14.5-14.64,12.45-26.27,27.1-26.4Z"/><path class="cls-14" d="m2169.85,1724.78h-.16c-111.82-3.34-674.86-20.06-778.65-21.52l-1.39-.02-.24-1.37c-9.76-55.05-9.56-279.77.5-572.49.09-2.58,2.19-4.62,4.78-4.65l778.48-6.98c1.71,0,2.83.78,3.47,1.43.92.92,1.41,2.11,1.4,3.43l-3.41,597.38c-.02,2.65-2.16,4.8-4.78,4.8Zm-777.36-24.87c107.36,1.59,665.98,18.18,777.3,21.5h.11c.73,0,1.36-.65,1.37-1.45l3.41-597.37c0-.42-.13-.74-.42-1.04-.29-.29-.64-.43-1.07-.43l-778.46,6.98c-.79,0-1.42.62-1.45,1.39-9.98,290.13-10.27,513.3-.79,570.42Z"/><path class="cls-3" d="m1488.44,1647.97h510.31c15.89,0,25.76-17.26,17.7-30.95l-202.03-343.45c-8.43-14.32-29.49-13.23-36.39,1.89l-97.55,213.75c-5.79,12.69-22.28,16.04-32.56,6.61l-39.46-36.17c-9.17-8.4-23.64-6.8-30.74,3.42l-106.14,152.64c-9.47,13.62.28,32.27,16.86,32.27Z"/><circle class="cls-3" cx="1991.82" cy="1263.2" r="73.36" transform="translate(-331.79 858.39) rotate(-22.5)"/><path class="cls-24" d="m2659.82,1817.98c-17.91-66.25-73.26-120.68-134.94-134.44-11.33-2.53-17.89-14.07-15.23-25.37.02-.08.04-.16.06-.24,8.94-38.53-15.76-69.23-53.01-77.87-37.25-8.64-72.94,8.05-81.88,46.58-6.03,26,1.69,55.25,18.8,74.2,7.05,7.81,7.61,19.46.79,27.46-37.58,44.03-52.87,111.23-36.62,171.35,23.94,88.54,107.19,128.09,190.6,105.54,83.41-22.55,135.38-98.67,111.44-187.21Z"/><path class="cls-32" d="m2633.88,1902.48l-1.62-1.14c14.93-21.19,16.85-51.78,5-79.83-9.41-22.28-26.25-42.65-52.99-64.11-9.96-8-20.53-15.59-30.75-22.93-12.3-8.84-25.02-17.97-36.81-27.91-10.6-8.94-21.76-20.03-24.1-34.53-1.17-7.23-.08-14.94.98-22.38,1.65-11.66,3.21-22.67-3.62-31.1l1.54-1.25c7.38,9.1,5.68,21.06,4.04,32.63-1.03,7.3-2.1,14.85-.99,21.79,2.24,13.87,13.1,24.63,23.42,33.33,11.73,9.88,24.42,19,36.69,27.81,10.24,7.36,20.83,14.96,30.83,22.99,27.01,21.68,44.03,42.29,53.57,64.88,12.11,28.67,10.11,60-5.21,81.74Z"/><path class="cls-32" d="m2594.22,1915.27l-1.86-.67c10.16-28.1,7.19-62.63-8.16-94.74-15.21-31.82-40.08-57.77-60.05-76.82l1.37-1.43c20.09,19.16,45.12,45.29,60.47,77.4,15.57,32.58,18.58,67.67,8.24,96.26Z"/><path class="cls-46" d="m2194.25,1551.8l-.69-22.88,23.92-47.49c4.38-8.69,4.41-18.93.09-27.64l-27.09-54.7s-15.65,118.74-19.76,128.61c-4.12,9.87,11.16,27.6,11.16,27.6l12.37-3.49Z"/><path class="cls-62" d="m2193.56,1528.92s72.75,198.32,196.7,260.3c0,0-41.26,67.32-62.79,71.4,0,0-132.42-169.48-145.92-308.33l12-23.37Z"/><path class="cls-48" d="m2692.08,2721.85l3.66,30.08c3.81,14.29,22.21,50.31,45.83,47.96,14.53-1.44,16.28-43.9,14.26-50.26-3.69-11.61-10.44-29.04-20.18-39.3h-33.36c-6.17,0-10.95,5.4-10.2,11.52Z"/><path class="cls-31" d="m2430.76,2369.53l-5.63,33.13s18.86,191.01,22.21,267.42c.53,11.98-2.57,23.82-8.86,34.03l-32.79,53.25,83.34-49.18,1.66-10.17-13.64-18.76,17.87-213.98c1.05-12.57-1.54-25.18-7.47-36.31l-17.24-32.38-39.44-27.04Z"/><path class="cls-28" d="m2400.2,2765.07h26.59c4.98,0,9.67-2.29,12.71-6.23,8.29-10.77,25.47-31.79,33.68-32.34,11.06-.74,9.64,38.57,9.64,38.57h6.2l7.85-48.84c1.98-12.29-4.14-24.46-15.17-30.22h0s-2.53,18.69-16.23,26.96c-13.7,8.27-55.77,37.88-55.77,37.88,0,0-5.15-.73-10.81.29-8.39,1.52-7.22,13.94,1.31,13.94Z"/><path class="cls-66" d="m2544.91,2385.27s110.47,209.56,128.04,257.41c17.56,47.85,23.71,87.76,23.95,91.54.37,5.91,7.71,11.57,27.96,11.57,10.45,0,15.57-4.19,18.07-8.24,2.14-3.46,2.25-7.79.45-11.43-6.39-12.93-26.67-54.26-34.18-73.01-8.97-22.38-28.26-123.81-38.84-159.07-10.58-35.27-22.54-73.52-68.61-108.76,0,0-31.62-30.97-56.85,0Z"/><path class="cls-67" d="m2475.12,2041.89c-16.18-68.56.1-120.21,17.19-152.05,13.64-25.4,4.05-56.81-21.53-70.11-39.97-20.79-80.52-30.51-80.52-30.51,0,0-79.2,57.9-69.8,103.22,5.51,26.56,55.67,159.1,55.67,159.1,0,0,46.38,21.95,98.99-9.64Z"/><path class="cls-21" d="m2538.3,2101.67c-11.6-34.94-63.18-59.78-63.18-59.78-52.6,31.59-98.99,9.64-98.99,9.64,0,0-10.4,39.76-3.22,76.71,7.18,36.95,52.22,274.41,52.22,274.41,70.97,14.38,180.13-14.47,180.13-14.47-45.21-80.26-55.36-251.58-66.96-286.52Z"/><path class="cls-17" d="m2442.04,1709.42l23.17,104.07c2.22,9.17-6.14,7.67-15.41,5.92-15.18-2.86-34.74-8.75-41.28-20.56-.67-1.2-1-2.56-1.19-3.92l-9.95-72.17c-.79-5.73,2.31-11.28,7.59-13.63l19.21-8.52c7.4-3.28,15.96.94,17.86,8.8Z"/><path class="cls-35" d="m2152.45,1640.68s60.98,211.84,306.88,191.93c15.73-1.27,29.55,10.38,30.77,26.12l.66,8.5c1.77,22.8-16.83,42.01-39.67,40.86-81.79-4.14-257.43-36.26-317.63-230.58l18.98-36.82Z"/><path class="cls-15" d="m2133.47,1677.5s-11.72-34.48-14.66-56.04c-2.94-21.55,7.89-69.93,17.2-83.53,9.31-13.6,10.87,19.74,15.06,35.41,4.19,15.67-2.91,38.03-2.91,38.03l4.28,29.31-18.98,36.82Z"/><path class="cls-18" d="m2394.53,1623.56s-58.58,85.35-22.15,109.13c36.43,23.78,78.14-36.87,78.14-36.87,0,0,13.09-46.35-1.8-61.71-14.89-15.36-54.18-10.54-54.18-10.54Z"/><path class="cls-60" d="m2419.11,1602.86s-25.49,6.55-28.86,18.2c-3.37,11.65,36.73,21.64,47.92,21.96l9.89,46.58s25.8-44.48,14.77-69.67c-11.03-25.2-43.72-17.06-43.72-17.06Z"/><path class="cls-23" d="m2438.73,1689.84s22.91-27.57,32.56-10.06c9.65,17.51-20.5,31.36-31.18,22.87l-1.38-12.81Z"/><path class="cls-32" d="m247.28,2507.97h932.69s0-151.48,0-151.48H247.28c19.96,0,19.96,151.48,0,151.48Z"/><path class="cls-41" d="m1179.97,2470.06v-69.33c0-24.44-18.43-44.25-41.17-44.25H251.21c-17.88,0-32.37-11.76-32.37-26.27,0-4.41,4.4-7.98,9.84-7.98h970.07c22.25,0,57.57,28.38,57.57,63.39v96.82c0,33.01-34.29,59.77-55.27,59.77H233.78c-8.25,0-14.94-5.43-14.94-12.12,0-12.22,12.21-22.13,27.27-22.13h898.6c19.48,0,35.27-16.97,35.27-37.91Z"/><path class="cls-6" d="m1154.1,2390.94H279.58c-1.86,0-3.36-1.51-3.36-3.36s1.51-3.36,3.36-3.36h874.53c1.86,0,3.36,1.51,3.36,3.36s-1.51,3.36-3.36,3.36Z"/><path class="cls-6" d="m1154.1,2413.42H279.58c-1.86,0-3.36-1.51-3.36-3.36s1.51-3.36,3.36-3.36h874.53c1.86,0,3.36,1.51,3.36,3.36s-1.51,3.36-3.36,3.36Z"/><path class="cls-6" d="m1154.1,2435.91H279.58c-1.86,0-3.36-1.51-3.36-3.36s1.51-3.36,3.36-3.36h874.53c1.86,0,3.36,1.51,3.36,3.36s-1.51,3.36-3.36,3.36Z"/><path class="cls-6" d="m1154.1,2458.39H279.58c-1.86,0-3.36-1.51-3.36-3.36s1.51-3.36,3.36-3.36h874.53c1.86,0,3.36,1.51,3.36,3.36s-1.51,3.36-3.36,3.36Z"/><path class="cls-6" d="m1154.1,2480.87H279.58c-1.86,0-3.36-1.51-3.36-3.36s1.51-3.36,3.36-3.36h874.53c1.86,0,3.36,1.51,3.36,3.36s-1.51,3.36-3.36,3.36Z"/><rect class="cls-49" x="46.81" y="2544.34" width="1244.79" height="253.11" rx="14.68" ry="14.68"/><rect class="cls-37" x="187.49" y="2573.43" width="146.24" height="194.93" rx="24.37" ry="24.37"/><rect class="cls-37" x="355.23" y="2573.43" width="54.87" height="194.93" rx="19.82" ry="19.82"/><path class="cls-59" d="m676.51,1641.09c-.6,1.14-38.66,29.15-38.66,29.15,0,0,8.4,60.12,42.53,83.86,37.52,26.1,90.5-21.5,90.5-21.5,0,0,42.17,10.02,64.59-77.75,5.14-20.14-24.55-21.84-60.39-18.13-46.22,4.78-98.57,4.38-98.57,4.38Z"/><path class="cls-47" d="m605.39,1846.19c14.89-10.24,31.34-17.95,48.79-22.7,6.55-1.78,41.94,8.5,63.82,8,30.03-.69,60.59-14.36,85.35-8.19,24.59,6.13,44.71,14.13,56.33,22.39,34.78,24.74,55.2,70.86,67.64,116.55-23.56,24.19-53.21,34.94-53.21,34.94l-5.48,222.08-131.32,67.19-149.88-75.25,5.37-217.02s-47.6-22.16-51.09-30.23c-3.49-8.06,21.69-88.88,63.68-117.75Z"/><path class="cls-42" d="m543.92,1962.98s-63.78,176.82,81.66,249.5c30.2-4.01,18.58-54.16,18.58-54.16,0,0-63.2-13.99-44.22-161.49-17.47-14.38-56.03-33.84-56.03-33.84Z"/><path class="cls-68" d="m924.25,1962.98s43.89,184.58-81.66,249.5c-30.2-4.01-18.58-54.16-18.58-54.16,0,0,50.93-25.08,44.22-161.49,17.47-14.38,56.03-33.84,56.03-33.84Z"/><rect class="cls-53" x="585.7" y="2030.42" width="287.96" height="194.47" rx="8.33" ry="8.33"/><path class="cls-20" d="m999.96,2282.55c-32.95-7.56-109.12-3.5-109.12-3.5l-3.1,8.39-5.13,41.7s72.54,13.07,108.29,13.04c3.65,0,6.98-.55,10.03-1.5,1.09-.98,2.16-1.99,3.16-3.09,15.17-16.57,10.79-40.9-4.14-55.04Z"/><path class="cls-56" d="m868.95,2276.7l12.9.55c6.93.3,13.46,3.67,18.12,9.37,4.66,5.7,7.06,13.23,6.65,20.91-.33,6.12-2.84,11.85-6.98,15.91-4.14,4.06-9.57,6.12-15.09,5.73l-19.73-1.4,4.14-51.06Z"/><path class="cls-57" d="m435.27,2278.54c33.13-6.55,109.17-.15,109.17-.15l2.89,8.48,4.09,41.84s-72.83,10.84-108.57,9.71c-3.65-.12-6.97-.77-9.99-1.81-1.07-1.01-2.1-2.06-3.08-3.19-14.75-17.03-9.76-41.22,5.51-54.89Z"/><path class="cls-36" d="m566.38,2276.72l-12.91.15c-6.93.08-13.55,3.26-18.35,8.81-4.8,5.55-7.38,13.01-7.17,20.7.17,6.13,2.54,11.93,6.58,16.12,4.04,4.19,9.42,6.42,14.94,6.19l19.76-.8-2.87-51.17Z"/><path class="cls-27" d="m1009.18,2151.82c-14.94-34.4-51.5-39.98-82.61-23.9-.54.71-197.57,101.69-371.33,145.95,4.97,15.95,7.53,32.92,8.09,49.59.1,3.72.04,7.38-.18,11,133.25-6.84,277.86-51.28,402.12-90.33,38.53-12.43,60.47-54.19,43.9-92.31Z"/><path class="cls-54" d="m869.9,2326.08c-.52-19.22,3.22-37.12,11.21-53.69.23-.76.5-1.49.74-2.24-9.92-3.07-22.74-7.24-39.58-12.95-123.38-42.23-217.51-84.86-307.35-133.94-34.9-19.07-74.58-6.29-85.75,35.01-9.97,36.86,11.93,68.34,45.17,79.4,99.44,33.09,47.67,23.9,80.14,34.35,87.22,26.97,195.76,51.54,295.62,58.25-.07-1.4-.16-2.79-.21-4.19Z"/><path class="cls-45" d="m654.18,1823.49s13.27,57.5,77.69,56.31c65.62-1.19,71.47-56.5,71.47-56.5l-42.86-9.17-3.58-47.76-64.48,4.78-1.19,45.37-37.05,6.97Z"/><path class="cls-25" d="m701.48,1631.05s-73.89,143.13,13.76,177.85c61.82,24.49,100.59-95.05,89.03-127.43-17.88-50.06-29.65-44.12-29.65-44.12l-73.14-6.31Z"/><path class="cls-22" d="m822.04,1618.03c36.5,10.03,5.31,89.2-49.65,70.48-54.96-18.72-76.55-18.45-85.12-3.36-8.56,15.09-10.4,68.68-28.99,42.19-20.37-29.04-31.73-87.33-6.75-106.12,22.32-16.79,27.53-42.83,54.31-41.93,35.54,1.2,63.02-14.56,79.06-3.19,18.42,13.05,10.28,34.55,37.14,41.93Z"/><path class="cls-34" d="m683.89,1697.46s-15.76-16.96-18.28,3.48c-2.52,20.44,5.58,46.76,15.06,32.33,9.49-14.43,3.22-35.81,3.22-35.81Z"/><path class="cls-32" d="m746.66,2112.39c1.53,10.32-4,19.68-14.32,21.21-10.32,1.53-19.92-5.6-21.45-15.92-1.53-10.32,3.2-20.56,13.51-22.09,10.32-1.53,20.72,6.48,22.25,16.8Z"/><circle class="cls-3" cx="548.59" cy="1231.71" r="337.03"/><path class="cls-32" d="m270.81,1215.27l70.72-36.88v15.71c0,1.19-.3,2.28-.89,3.26-.6.98-1.58,1.83-2.95,2.54l-32.41,16.61c-1.37.72-2.81,1.33-4.33,1.83-1.52.51-3.14.97-4.87,1.38,1.73.42,3.35.88,4.87,1.38,1.52.51,2.96,1.12,4.33,1.83l32.41,16.7c1.37.71,2.35,1.56,2.95,2.54.59.98.89,2.07.89,3.26v15.72l-70.72-36.97v-8.93Z"/><path class="cls-32" d="m373.77,1279.91v-132.69h22.06v50.99c3.57-3.39,7.5-6.13,11.79-8.21,4.29-2.08,9.32-3.12,15.09-3.12,5,0,9.44.85,13.31,2.55,3.87,1.69,7.1,4.08,9.69,7.14,2.59,3.07,4.55,6.73,5.89,10.98s2.01,8.94,2.01,14.06v58.31h-22.05v-58.31c0-5.6-1.3-9.93-3.88-12.99-2.59-3.06-6.47-4.6-11.65-4.6-3.81,0-7.38.86-10.72,2.59-3.33,1.73-6.49,4.08-9.46,7.05v66.26h-22.06Z"/><path class="cls-32" d="m505.39,1281.34c-7.92,0-14.02-2.25-18.3-6.74-4.29-4.49-6.43-10.7-6.43-18.62v-51.16h-9.29c-1.19,0-2.22-.39-3.08-1.16-.86-.77-1.3-1.93-1.3-3.48v-8.75l14.73-2.41,4.64-25c.24-1.19.79-2.11,1.65-2.77.86-.65,1.95-.98,3.26-.98h11.43v28.84h24.11v15.72h-24.11v49.65c0,2.86.72,5.09,2.14,6.7,1.43,1.61,3.33,2.41,5.71,2.41,1.37,0,2.51-.16,3.44-.49.92-.33,1.73-.67,2.41-1.03.68-.36,1.29-.7,1.83-1.03.53-.33,1.07-.49,1.61-.49.65,0,1.19.17,1.61.49.42.33.86.82,1.34,1.47l6.61,10.71c-3.21,2.68-6.91,4.7-11.07,6.07-4.17,1.37-8.48,2.06-12.95,2.06Z"/><path class="cls-32" d="m544.41,1279.91v-91.61h13.48c2.86,0,4.73,1.34,5.62,4.02l1.43,6.79c1.61-1.79,3.29-3.42,5.05-4.91,1.75-1.49,3.63-2.77,5.62-3.84,1.99-1.07,4.14-1.92,6.43-2.54,2.29-.62,4.81-.94,7.55-.94,5.77,0,10.52,1.56,14.24,4.69s6.5,7.28,8.35,12.46c1.43-3.03,3.21-5.64,5.36-7.81,2.14-2.17,4.5-3.94,7.05-5.31,2.56-1.37,5.28-2.38,8.17-3.03,2.89-.65,5.79-.98,8.71-.98,5.06,0,9.55.77,13.48,2.32,3.93,1.55,7.23,3.81,9.91,6.78,2.68,2.98,4.72,6.61,6.12,10.89,1.4,4.29,2.1,9.2,2.1,14.73v58.31h-22.06v-58.31c0-5.83-1.28-10.22-3.84-13.17-2.56-2.95-6.31-4.42-11.25-4.42-2.26,0-4.36.39-6.29,1.16-1.94.77-3.63,1.89-5.09,3.35-1.46,1.46-2.6,3.29-3.44,5.49-.83,2.2-1.25,4.73-1.25,7.59v58.31h-22.14v-58.31c0-6.13-1.24-10.59-3.71-13.39-2.47-2.8-6.12-4.2-10.94-4.2-3.16,0-6.12.79-8.89,2.37-2.77,1.58-5.34,3.74-7.72,6.48v67.06h-22.06Z"/><path class="cls-32" d="m718.26,1147.22v132.69h-22.06v-132.69h22.06Z"/><path class="cls-32" d="m751.83,1261.16v-15.72c0-1.19.3-2.28.89-3.26.59-.98,1.58-1.83,2.95-2.54l32.41-16.7c2.62-1.31,5.68-2.38,9.2-3.21-1.73-.42-3.35-.88-4.87-1.38-1.52-.51-2.96-1.12-4.33-1.83l-32.41-16.61c-1.37-.72-2.35-1.56-2.95-2.54-.6-.98-.89-2.07-.89-3.26v-15.71l70.72,36.88v8.93l-70.72,36.97Z"/><circle class="cls-3" cx="1321.68" cy="1014.01" r="296.87"/><path class="cls-32" d="m1164.73,1014.49l85.8-44.74v19.06c0,1.45-.37,2.76-1.09,3.96-.72,1.19-1.91,2.22-3.58,3.09l-39.32,20.15c-1.66.86-3.41,1.61-5.25,2.22-1.84.62-3.81,1.17-5.9,1.68,2.09.5,4.06,1.07,5.9,1.68,1.84.61,3.59,1.35,5.25,2.22l39.32,20.26c1.66.87,2.85,1.9,3.58,3.09.72,1.19,1.09,2.51,1.09,3.95v19.07l-85.8-44.85v-10.83Z"/><path class="cls-32" d="m1298.95,1093.25c-.65,1.66-1.48,3.11-2.49,4.34-1.01,1.23-2.17,2.26-3.47,3.09-1.3.83-2.67,1.46-4.12,1.89-1.45.44-2.86.65-4.22.65h-11.27l63.27-161.85c1.23-3.03,2.99-5.36,5.31-6.99,2.31-1.63,5.09-2.44,8.34-2.44h11.38l-62.73,161.31Z"/><path class="cls-32" d="m1383.99,1070.18v-19.07c0-1.44.36-2.76,1.08-3.95.72-1.19,1.91-2.22,3.58-3.09l39.33-20.26c3.17-1.59,6.89-2.89,11.16-3.9-2.09-.5-4.06-1.06-5.9-1.68-1.84-.61-3.6-1.35-5.25-2.22l-39.33-20.15c-1.66-.87-2.85-1.9-3.58-3.09-.72-1.19-1.08-2.51-1.08-3.96v-19.06l85.8,44.74v10.83l-85.8,44.85Z"/><g class="cls-40"><path class="cls-55" d="m2656.08,1186.02c-.87,0-1.75-.34-2.41-1.01-1.3-1.33-1.27-3.46.05-4.76,1.98-1.94,3.94-3.9,5.87-5.89,1.29-1.33,3.42-1.37,4.76-.08,1.33,1.29,1.37,3.42.08,4.76-1.97,2.03-3.97,4.04-6,6.03-.66.64-1.5.96-2.35.96Z"/><path class="cls-30" d="m2446.23,1274.62c-1.82,0-3.32-1.45-3.36-3.28-.04-1.86,1.43-3.4,3.28-3.44,5.45-.13,10.98-.41,16.45-.84,1.85-.12,3.47,1.24,3.62,3.09s-1.24,3.47-3.09,3.62c-5.59.44-11.25.73-16.81.86-.03,0-.06,0-.08,0Zm-16.66-.04s-.07,0-.1,0c-5.59-.16-11.24-.48-16.81-.95-1.85-.15-3.23-1.78-3.07-3.63.15-1.85,1.76-3.23,3.63-3.07,5.45.46,10.98.77,16.45.93,1.86.05,3.32,1.61,3.27,3.46-.06,1.82-1.55,3.27-3.36,3.27Zm49.85-2.56c-1.66,0-3.11-1.23-3.33-2.92-.25-1.84,1.05-3.53,2.89-3.78,5.41-.72,10.88-1.6,16.27-2.61,1.82-.34,3.58.86,3.93,2.68.34,1.83-.86,3.59-2.68,3.93-5.5,1.04-11.09,1.93-16.62,2.66-.15.02-.3.03-.45.03Zm-83.04-.21c-.15,0-.31,0-.46-.03-5.55-.76-11.14-1.69-16.61-2.74-1.82-.35-3.02-2.12-2.66-3.94.35-1.82,2.11-3.01,3.94-2.67,5.35,1.03,10.82,1.93,16.26,2.68,1.84.25,3.13,1.95,2.87,3.79-.23,1.69-1.67,2.91-3.33,2.91Zm115.77-5.95c-1.51,0-2.89-1.03-3.27-2.57-.44-1.81.67-3.63,2.47-4.07,5.29-1.29,10.64-2.76,15.89-4.34,1.78-.54,3.66.47,4.2,2.25s-.47,3.66-2.24,4.19c-5.37,1.62-10.83,3.12-16.24,4.44-.27.07-.54.1-.8.1Zm-148.47-.34c-.27,0-.54-.03-.81-.1-5.42-1.35-10.88-2.86-16.22-4.49-1.78-.54-2.78-2.43-2.23-4.2.54-1.78,2.43-2.78,4.2-2.24,5.23,1.6,10.57,3.08,15.88,4.39,1.8.45,2.9,2.27,2.45,4.08-.38,1.53-1.75,2.55-3.26,2.55Zm180.35-9.29c-1.38,0-2.67-.85-3.16-2.22-.63-1.75.27-3.68,2.02-4.31,5.12-1.85,10.28-3.88,15.34-6.02,1.71-.72,3.69.08,4.41,1.79.72,1.71-.08,3.69-1.79,4.41-5.17,2.19-10.44,4.25-15.67,6.15-.38.14-.77.2-1.15.2Zm-212.19-.44c-.38,0-.77-.07-1.15-.21-5.25-1.92-10.52-4-15.65-6.19-1.71-.73-2.5-2.71-1.77-4.42.73-1.71,2.72-2.5,4.42-1.77,5.02,2.14,10.17,4.18,15.32,6.06,1.74.64,2.65,2.57,2.01,4.31-.5,1.37-1.79,2.21-3.16,2.21Zm242.86-12.54c-1.25,0-2.44-.69-3.03-1.89-.81-1.67-.12-3.69,1.55-4.5,4.93-2.4,9.84-4.96,14.62-7.6,1.62-.9,3.67-.31,4.57,1.31.9,1.62.31,3.67-1.31,4.57-4.88,2.7-9.9,5.31-14.93,7.76-.47.23-.98.34-1.47.34Zm-273.49-.52c-.5,0-1-.11-1.48-.34-5.01-2.46-10.03-5.09-14.91-7.82-1.62-.91-2.2-2.96-1.29-4.58.91-1.62,2.95-2.2,4.58-1.3,4.77,2.67,9.68,5.24,14.58,7.65,1.67.82,2.36,2.84,1.54,4.5-.58,1.19-1.78,1.88-3.02,1.88Zm302.62-15.61c-1.12,0-2.22-.56-2.86-1.58-.99-1.58-.51-3.65,1.07-4.64,4.64-2.91,9.26-5.97,13.72-9.11,1.52-1.07,3.62-.7,4.69.82,1.07,1.52.7,3.62-.82,4.69-4.56,3.2-9.28,6.33-14.02,9.3-.56.35-1.17.51-1.78.51Zm-331.68-.63c-.61,0-1.24-.17-1.79-.52-4.72-2.98-9.42-6.13-13.98-9.36-1.52-1.07-1.87-3.17-.8-4.69,1.07-1.51,3.17-1.87,4.69-.8,4.46,3.16,9.07,6.24,13.69,9.16,1.57.99,2.04,3.07,1.05,4.64-.64,1.01-1.73,1.57-2.85,1.57Zm358.91-18.52c-1,0-1.98-.44-2.65-1.28-1.15-1.46-.9-3.58.57-4.73,4.31-3.39,8.58-6.93,12.67-10.53,1.39-1.22,3.52-1.09,4.75.31,1.23,1.4,1.08,3.52-.31,4.75-4.18,3.67-8.54,7.29-12.95,10.76-.61.48-1.35.72-2.08.72Zm-386.06-.73c-.73,0-1.47-.24-2.09-.73-4.38-3.48-8.72-7.11-12.89-10.8-1.39-1.23-1.52-3.36-.29-4.75,1.24-1.39,3.37-1.52,4.75-.29,4.08,3.61,8.33,7.17,12.62,10.57,1.46,1.15,1.7,3.27.55,4.73-.66.84-1.65,1.28-2.64,1.28Zm-24.92-22.04c-.85,0-1.71-.32-2.36-.97-3.96-3.91-7.89-7.98-11.66-12.12-1.25-1.37-1.15-3.5.22-4.75,1.38-1.25,3.5-1.15,4.75.22,3.69,4.05,7.52,8.04,11.41,11.86,1.32,1.3,1.34,3.43.04,4.76-.66.67-1.53,1-2.4,1Zm-22.4-24.58c-.98,0-1.94-.42-2.61-1.24-3.53-4.32-7-8.8-10.3-13.31-1.09-1.5-.77-3.61.73-4.7,1.5-1.1,3.6-.77,4.7.73,3.23,4.41,6.61,8.8,10.07,13.03,1.18,1.44.96,3.56-.48,4.74-.62.51-1.38.76-2.13.76Zm-19.65-26.87c-1.1,0-2.18-.54-2.82-1.53-3.06-4.7-6.03-9.52-8.81-14.34-.93-1.61-.38-3.67,1.23-4.6,1.6-.93,3.66-.38,4.6,1.23,2.72,4.71,5.62,9.43,8.62,14.03,1.02,1.56.58,3.64-.98,4.66-.57.37-1.2.55-1.83.55Zm-16.67-28.81c-1.23,0-2.41-.67-3-1.84-1.2-2.35-2.37-4.71-3.51-7.1-1.29-2.69-2.54-5.39-3.74-8.1-.75-1.7,0-3.69,1.71-4.44,1.7-.76,3.69.01,4.44,1.71,1.18,2.65,2.4,5.29,3.65,7.91,1.12,2.34,2.27,4.66,3.44,6.95.84,1.66.19,3.68-1.47,4.53-.49.25-1.01.37-1.52.37Zm-13.54-30.42c-1.35,0-2.63-.82-3.14-2.16-2-5.21-3.88-10.55-5.6-15.87-.57-1.77.4-3.67,2.17-4.24,1.78-.57,3.67.4,4.24,2.17,1.69,5.21,3.53,10.44,5.48,15.54.67,1.74-.2,3.68-1.94,4.35-.4.15-.81.23-1.21.23Zm-10.24-31.69c-1.49,0-2.85-1-3.25-2.5-1.42-5.37-2.72-10.89-3.87-16.38-.38-1.82.79-3.6,2.61-3.98,1.8-.38,3.6.79,3.98,2.61,1.12,5.38,2.4,10.78,3.79,16.04.48,1.8-.59,3.64-2.39,4.11-.29.08-.58.11-.86.11Zm-6.78-32.6c-1.64,0-3.07-1.19-3.32-2.86-.84-5.52-1.54-11.14-2.09-16.71-.18-1.85,1.17-3.49,3.02-3.68,1.87-.19,3.49,1.17,3.68,3.02.53,5.45,1.22,10.95,2.04,16.35.28,1.84-.98,3.55-2.82,3.83-.17.03-.34.04-.51.04Zm-3.23-33.14c-1.79,0-3.28-1.41-3.36-3.22-.19-4.47-.29-9.03-.29-13.54l.02-3.29c.02-1.86,1.68-3.4,3.39-3.33,1.86.02,3.35,1.54,3.34,3.4l-.02,3.23c0,4.41.1,8.87.29,13.25.08,1.86-1.36,3.43-3.22,3.51-.05,0-.1,0-.15,0Z"/><path class="cls-19" d="m2127.95,943.62c-.07,0-.15,0-.22,0-1.85-.12-3.26-1.72-3.14-3.58.18-2.83.4-5.65.66-8.47.17-1.85,1.78-3.22,3.66-3.04,1.85.17,3.21,1.81,3.04,3.66-.25,2.76-.47,5.52-.65,8.29-.11,1.78-1.6,3.15-3.35,3.15Z"/></g><g class="cls-40"><path class="cls-38" d="m2234.08,728.84c-.94,0-1.87-.39-2.54-1.16-1.22-1.4-1.07-3.53.33-4.75,2.13-1.85,4.29-3.69,6.49-5.49,1.44-1.18,3.56-.97,4.74.46,1.18,1.43.97,3.56-.46,4.74-2.15,1.76-4.26,3.56-6.35,5.37-.64.56-1.42.83-2.21.83Z"/><path class="cls-50" d="m2749.24,980.45c-.06,0-.12,0-.19,0-1.86-.1-3.28-1.69-3.17-3.54.31-5.67.47-11.38.47-16.96,0-1.86,1.5-3.36,3.36-3.36s3.36,1.51,3.36,3.36c0,5.71-.16,11.54-.48,17.33-.1,1.79-1.58,3.18-3.35,3.18Zm0-34.29c-1.77,0-3.26-1.39-3.36-3.18-.31-5.63-.79-11.32-1.41-16.9-.2-1.85,1.13-3.51,2.97-3.72,1.81-.22,3.51,1.12,3.72,2.97.63,5.71,1.12,11.52,1.44,17.28.11,1.85-1.32,3.44-3.17,3.55-.07,0-.13,0-.19,0Zm-3.79-34.08c-1.61,0-3.04-1.16-3.32-2.81-.93-5.54-2.03-11.14-3.28-16.64-.41-1.81.73-3.61,2.54-4.02,1.81-.4,3.61.73,4.03,2.54,1.27,5.63,2.4,11.35,3.35,17.01.31,1.83-.93,3.57-2.76,3.88-.19.03-.38.05-.56.05Zm-7.55-33.44c-1.47,0-2.81-.96-3.24-2.44-1.55-5.44-3.26-10.88-5.1-16.18-.61-1.76.33-3.67,2.08-4.28,1.74-.6,3.67.33,4.28,2.08,1.87,5.42,3.62,10.98,5.21,16.54.51,1.79-.53,3.65-2.31,4.16-.31.09-.62.13-.92.13Zm-11.19-32.41c-1.32,0-2.58-.79-3.12-2.09-2.12-5.2-4.42-10.42-6.84-15.53-.79-1.68-.08-3.69,1.6-4.48,1.69-.79,3.69-.07,4.48,1.61,2.47,5.22,4.82,10.56,6.98,15.86.7,1.72-.12,3.69-1.84,4.39-.42.17-.85.25-1.27.25Zm-14.66-31c-1.2,0-2.36-.64-2.96-1.76-2.67-4.94-5.52-9.88-8.47-14.69-.97-1.58-.48-3.66,1.11-4.63,1.57-.98,3.65-.48,4.63,1.11,3.02,4.91,5.93,9.97,8.66,15.01.88,1.63.27,3.68-1.36,4.56-.51.27-1.06.4-1.6.4Zm-17.94-29.21c-1.07,0-2.12-.51-2.77-1.45-3.19-4.62-6.57-9.22-10.04-13.67-1.14-1.47-.88-3.58.59-4.72,1.47-1.14,3.58-.88,4.72.59,3.54,4.55,6.99,9.25,10.26,13.98,1.06,1.53.68,3.62-.85,4.68-.58.4-1.25.6-1.91.6Zm-21.04-27.04c-.94,0-1.87-.39-2.54-1.16-3.69-4.24-7.55-8.43-11.48-12.47-1.29-1.33-1.27-3.46.07-4.76,1.33-1.3,3.46-1.27,4.76.06,4.02,4.13,7.97,8.41,11.73,12.74,1.22,1.4,1.07,3.53-.33,4.75-.64.55-1.42.83-2.21.83Zm-23.89-24.54c-.81,0-1.63-.29-2.28-.89-4.12-3.79-8.43-7.53-12.79-11.12-1.44-1.18-1.64-3.3-.46-4.74,1.18-1.43,3.3-1.64,4.74-.46,4.46,3.67,8.86,7.49,13.08,11.36,1.37,1.26,1.46,3.39.2,4.75-.66.72-1.57,1.09-2.48,1.09Zm-395.12-21.54c-1.04,0-2.06-.47-2.71-1.37-1.1-1.5-.78-3.6.72-4.7,4.63-3.4,9.42-6.72,14.25-9.87,1.56-1.01,3.64-.58,4.66.98,1.02,1.56.57,3.64-.98,4.66-4.73,3.08-9.41,6.33-13.95,9.66-.6.44-1.3.65-1.99.65Zm368.64-.21c-.69,0-1.39-.21-1.98-.65-4.53-3.32-9.22-6.57-13.95-9.64-1.56-1.02-2-3.1-.98-4.66,1.01-1.56,3.09-2,4.66-.98,4.83,3.15,9.62,6.46,14.25,9.85,1.5,1.1,1.82,3.21.73,4.7-.66.9-1.68,1.38-2.72,1.38Zm-339.93-18.53c-1.16,0-2.29-.6-2.92-1.68-.93-1.61-.37-3.67,1.23-4.6,4.99-2.88,10.12-5.66,15.25-8.25,1.66-.84,3.68-.18,4.52,1.48.84,1.66.17,3.68-1.49,4.52-5.01,2.54-10.03,5.25-14.92,8.07-.53.31-1.11.45-1.68.45Zm311.21-.18c-.57,0-1.15-.14-1.68-.45-4.87-2.81-9.9-5.52-14.92-8.06-1.66-.84-2.33-2.86-1.49-4.52.84-1.66,2.86-2.33,4.52-1.49,5.14,2.59,10.27,5.36,15.25,8.23,1.61.93,2.17,2.99,1.24,4.6-.62,1.08-1.75,1.69-2.92,1.69Zm-280.62-15.31c-1.29,0-2.53-.75-3.08-2.01-.75-1.7.02-3.69,1.73-4.44,5.27-2.32,10.67-4.52,16.05-6.55,1.74-.65,3.68.23,4.33,1.96.66,1.74-.22,3.68-1.96,4.34-5.27,1.98-10.55,4.14-15.71,6.41-.44.19-.9.29-1.35.29Zm250.01-.13c-.45,0-.91-.09-1.35-.28-5.14-2.25-10.43-4.39-15.72-6.37-1.74-.65-2.62-2.59-1.97-4.33.65-1.74,2.57-2.63,4.33-1.97,5.41,2.02,10.81,4.21,16.06,6.51,1.7.75,2.48,2.73,1.73,4.43-.55,1.26-1.79,2.02-3.09,2.02Zm-217.92-11.95c-1.43,0-2.76-.92-3.21-2.36-.56-1.77.43-3.66,2.2-4.22,5.48-1.73,11.1-3.33,16.68-4.75,1.8-.46,3.63.63,4.09,2.43.46,1.8-.63,3.63-2.43,4.09-5.46,1.39-10.95,2.95-16.32,4.64-.34.11-.68.16-1.01.16Zm185.81-.06c-.33,0-.67-.05-1.01-.15-5.36-1.68-10.85-3.23-16.32-4.62-1.8-.46-2.89-2.29-2.43-4.09.46-1.81,2.29-2.89,4.09-2.43,5.59,1.42,11.21,3.01,16.68,4.72,1.77.56,2.76,2.44,2.2,4.22-.45,1.44-1.78,2.36-3.21,2.36Zm-152.59-8.42c-1.58,0-2.98-1.11-3.3-2.72-.36-1.82.83-3.59,2.65-3.95,5.65-1.11,11.41-2.08,17.1-2.87,1.85-.27,3.54,1.03,3.8,2.87.26,1.84-1.03,3.54-2.87,3.8-5.57.78-11.2,1.72-16.73,2.81-.22.04-.44.06-.65.06Zm119.35,0c-.21,0-.43-.02-.65-.06-5.54-1.08-11.17-2.03-16.74-2.8-1.84-.25-3.12-1.96-2.87-3.8.26-1.84,1.96-3.14,3.8-2.87,5.69.79,11.45,1.75,17.1,2.86,1.82.36,3.01,2.12,2.66,3.95-.32,1.61-1.72,2.72-3.3,2.72Zm-33.97-4.73c-.09,0-.19,0-.28-.01-5.6-.47-11.3-.78-16.94-.94-1.86-.05-3.32-1.6-3.27-3.46.05-1.86,1.72-3.34,3.46-3.27,5.77.16,11.59.48,17.32.96,1.85.15,3.23,1.78,3.07,3.63-.14,1.76-1.62,3.09-3.35,3.09Zm-51.42,0c-1.73,0-3.2-1.33-3.35-3.09-.15-1.85,1.22-3.48,3.07-3.63,5.74-.48,11.57-.8,17.31-.96,1.75-.07,3.4,1.41,3.46,3.27.05,1.86-1.42,3.4-3.27,3.46-5.62.15-11.32.47-16.94.94-.1,0-.19.01-.28.01Z"/><path class="cls-16" d="m2746.74,1006.09c-.15,0-.31,0-.47-.03-1.84-.26-3.12-1.96-2.87-3.8.38-2.74.73-5.49,1.04-8.25.21-1.85,1.85-3.18,3.72-2.97,1.85.21,3.18,1.87,2.97,3.72-.32,2.82-.67,5.63-1.06,8.43-.23,1.68-1.68,2.9-3.33,2.9Z"/></g><path class="cls-63" d="m2705.99,1032.36c.67-1.72.17-3.68-1.24-4.87l-40.21-34.05c3.45-24.36,3.03-49.45-1.62-74.34l38.64-35.77c1.36-1.25,1.77-3.23,1.02-4.92l-25.47-57.84c-.75-1.69-2.48-2.72-4.32-2.57l-52.47,4.35c-15.22-20.23-33.45-37.48-53.75-51.38l2.03-52.65c.07-1.85-1.04-3.53-2.76-4.2l-58.91-22.89c-1.72-.67-3.68-.17-4.87,1.24l-34.05,40.21c-24.36-3.45-49.45-3.03-74.34,1.62l-35.77-38.64c-1.25-1.36-3.23-1.77-4.92-1.02l-57.84,25.47c-1.69.74-2.72,2.48-2.57,4.32l4.35,52.47c-20.24,15.22-37.48,33.45-51.38,53.75l-52.65-2.03c-1.84-.07-3.53,1.04-4.2,2.76l-22.89,58.91c-.67,1.72-.17,3.68,1.24,4.87l40.21,34.05c-3.45,24.36-3.03,49.45,1.62,74.34l-38.64,35.77c-1.35,1.25-1.76,3.23-1.02,4.92l25.47,57.84c.74,1.69,2.48,2.72,4.32,2.57l52.47-4.35c15.22,20.24,33.45,37.48,53.75,51.38l-2.03,52.65c-.07,1.85,1.04,3.53,2.76,4.2l58.91,22.88c1.72.67,3.68.17,4.87-1.24l34.05-40.21c24.36,3.45,49.45,3.03,74.34-1.62l35.77,38.64c1.25,1.35,3.23,1.77,4.92,1.02l57.84-25.47c1.69-.74,2.72-2.48,2.57-4.32l-4.35-52.47c20.23-15.22,37.48-33.45,51.38-53.75l52.65,2.03c1.85.07,3.53-1.04,4.2-2.76l22.89-58.91Z"/><path class="cls-32" d="m2435.97,1020.78c-17.72,0-35.27-7.86-46.98-22.89-20.16-25.87-15.52-63.32,10.34-83.48,12.53-9.76,28.13-14.07,43.88-12.12,15.77,1.95,29.83,9.93,39.6,22.46h0c9.77,12.53,14.07,28.11,12.12,43.88-1.96,15.77-9.93,29.83-22.46,39.6-10.84,8.45-23.72,12.54-36.5,12.54Zm-.17-112.21c-11.68,0-22.96,3.86-32.32,11.15-22.94,17.88-27.06,51.09-9.17,74.04,17.89,22.94,51.1,27.05,74.03,9.17,11.11-8.66,18.19-21.13,19.92-35.12,1.73-13.98-2.08-27.8-10.75-38.92h0c-8.66-11.11-21.13-18.19-35.11-19.92-2.2-.27-4.41-.41-6.6-.41Z"/><path class="cls-32" d="m2434.84,1116.8c-59.94,0-117.19-34.75-142.86-93.03-8.97-20.37-13.22-41.65-13.22-62.61,0-59.93,34.76-117.18,93.04-142.85,38.1-16.78,80.46-17.72,119.26-2.64,38.8,15.08,69.42,44.36,86.2,82.46,4.48,10.17,7.87,20.8,10.09,31.61.05.23.07.45.07.68,0,1.56-1.09,2.97-2.69,3.29-1.81.38-3.6-.8-3.97-2.62-2.13-10.34-5.38-20.52-9.66-30.25h0c-.96-2.17-1.96-4.31-3.01-6.42,0,0,0-.01-.01-.02-.04-.08-.08-.15-.12-.23,0-.01-.02-.03-.02-.05,0,0,0,0,0-.01,0,0,0,0,0,0,0-.02-.02-.03-.03-.05-16.58-33.14-44.49-58.59-79.28-72.1-37.14-14.43-77.65-13.53-114.11,2.53-55.76,24.56-89.01,79.34-89.02,136.68,0,20.05,4.06,40.41,12.64,59.9,33.15,75.25,121.34,109.51,196.58,76.37,24.74-10.9,46.03-28.26,61.56-50.2,1.07-1.52,3.17-1.88,4.69-.8.93.66,1.42,1.7,1.42,2.75,0,.67-.2,1.35-.62,1.94-16.24,22.94-38.49,41.09-64.34,52.47-20.37,8.97-41.65,13.22-62.6,13.22Z"/><g class="cls-40"><path class="cls-44" d="m2205.34,796.62c-.88,0-1.76-.35-2.42-1.03-1.29-1.34-1.25-3.47.09-4.76,1.99-1.92,3.95-3.88,5.87-5.86,1.29-1.34,3.42-1.37,4.76-.08,1.33,1.29,1.37,3.42.07,4.76-1.97,2.04-3.98,4.04-6.03,6.02-.65.63-1.5.94-2.34.94Z"/><path class="cls-65" d="m2032.78,866.35c-4.56,0-9.18-.13-13.73-.37-1.86-.1-3.28-1.69-3.17-3.54.1-1.86,1.67-3.28,3.54-3.18,5.55.3,11.16.42,16.78.34h.05c1.84,0,3.34,1.48,3.36,3.32.03,1.86-1.46,3.39-3.32,3.41-1.17.02-2.35.02-3.52.02Zm20.47-.85c-1.73,0-3.2-1.33-3.35-3.09-.15-1.85,1.22-3.48,3.07-3.63,5.56-.46,11.17-1.12,16.67-1.97,1.85-.29,3.56.98,3.83,2.82.28,1.84-.98,3.55-2.82,3.83-5.66.87-11.42,1.55-17.13,2.02-.1,0-.19.01-.28.01Zm-50.97-1.03c-.14,0-.28,0-.42-.03-5.69-.7-11.42-1.61-17.03-2.7-1.82-.35-3.02-2.12-2.66-3.94.35-1.82,2.11-3.01,3.94-2.66,5.46,1.06,11.04,1.94,16.58,2.63,1.84.23,3.15,1.91,2.92,3.75-.21,1.7-1.66,2.95-3.34,2.95Zm84.6-4.12c-1.54,0-2.93-1.06-3.28-2.63-.41-1.81.73-3.61,2.55-4.02,5.44-1.22,10.91-2.65,16.24-4.24,1.8-.53,3.66.49,4.19,2.26.53,1.78-.48,3.66-2.26,4.19-5.48,1.63-11.1,3.1-16.7,4.36-.25.06-.5.08-.74.08Zm-117.99-2.35c-.29,0-.58-.04-.87-.12-5.52-1.46-11.07-3.14-16.51-4.99-1.76-.6-2.7-2.51-2.11-4.27.6-1.76,2.51-2.7,4.27-2.1,5.29,1.8,10.7,3.43,16.07,4.86,1.79.48,2.87,2.32,2.39,4.11-.4,1.51-1.76,2.5-3.25,2.5Zm150.6-7.36c-1.36,0-2.65-.84-3.15-2.19-.65-1.74.23-3.68,1.97-4.33,5.21-1.95,10.43-4.11,15.52-6.41,1.7-.77,3.69-.02,4.46,1.67.77,1.69.02,3.69-1.68,4.45-5.23,2.37-10.59,4.59-15.94,6.59-.39.15-.79.22-1.18.22Zm-182.81-3.58c-.43,0-.87-.08-1.3-.26-5.27-2.2-10.54-4.62-15.68-7.18-1.66-.83-2.34-2.85-1.5-4.51.83-1.66,2.85-2.34,4.51-1.51,5,2.5,10.13,4.85,15.26,6.99,1.72.72,2.52,2.69,1.81,4.4-.54,1.29-1.79,2.07-3.11,2.07Zm213.8-10.47c-1.2,0-2.36-.64-2.97-1.77-.88-1.64-.27-3.68,1.37-4.56,4.91-2.64,9.79-5.48,14.51-8.44,1.57-.99,3.65-.51,4.64,1.06.99,1.57.52,3.65-1.06,4.64-4.85,3.05-9.86,5.97-14.91,8.67-.51.27-1.05.4-1.59.4Zm-244.23-4.75c-.58,0-1.17-.15-1.7-.46-4.95-2.91-9.84-6.02-14.56-9.25-1.53-1.05-1.93-3.14-.88-4.68,1.05-1.53,3.14-1.93,4.68-.88,4.59,3.14,9.36,6.17,14.17,9,1.6.94,2.14,3.01,1.2,4.61-.63,1.06-1.75,1.66-2.9,1.66Zm273.03-13.35c-1.04,0-2.06-.48-2.72-1.39-1.09-1.5-.76-3.61.74-4.7,4.51-3.28,8.95-6.76,13.22-10.34,1.43-1.2,3.55-1,4.74.41,1.2,1.42,1.01,3.55-.41,4.74-4.38,3.68-8.95,7.26-13.58,10.63-.6.44-1.29.64-1.98.64Zm-301.09-5.86c-.73,0-1.47-.24-2.08-.72-4.51-3.56-8.93-7.32-13.16-11.16-1.37-1.25-1.48-3.38-.23-4.75,1.25-1.37,3.38-1.47,4.75-.23,4.11,3.73,8.42,7.39,12.8,10.85,1.46,1.15,1.71,3.27.55,4.73-.66.84-1.65,1.28-2.64,1.28Zm-25.16-22.87c-.88,0-1.77-.35-2.43-1.04-3.96-4.13-7.83-8.45-11.5-12.85-1.19-1.43-1-3.55.43-4.74,1.44-1.19,3.55-.99,4.74.43,3.57,4.28,7.33,8.49,11.18,12.51,1.29,1.34,1.24,3.47-.1,4.76-.65.63-1.49.94-2.33.94Zm-21.78-26.11c-1.04,0-2.07-.48-2.73-1.39-3.35-4.62-6.58-9.44-9.62-14.31-.98-1.58-.5-3.65,1.07-4.64,1.57-.99,3.65-.5,4.64,1.07,2.96,4.74,6.11,9.43,9.37,13.93,1.09,1.51.75,3.61-.76,4.7-.59.43-1.28.64-1.97.64Zm-18.01-28.85c-1.2,0-2.37-.65-2.97-1.78-1.72-3.23-3.4-6.56-5-9.89-.89-1.86-1.75-3.72-2.6-5.59-.77-1.69-.01-3.69,1.68-4.45,1.7-.77,3.69,0,4.45,1.68.82,1.82,1.67,3.64,2.53,5.45,1.55,3.24,3.19,6.49,4.87,9.63.87,1.64.25,3.68-1.39,4.55-.51.27-1.05.4-1.58.4Zm-13.96-31.03c-1.37,0-2.65-.84-3.15-2.2-1.99-5.38-3.82-10.88-5.44-16.37-.53-1.78.49-3.65,2.28-4.18,1.79-.52,3.65.5,4.18,2.28,1.57,5.34,3.35,10.7,5.29,15.94.65,1.74-.24,3.68-1.98,4.32-.38.14-.78.21-1.17.21Zm-9.62-32.64c-1.54,0-2.93-1.07-3.28-2.64-1.23-5.56-2.29-11.27-3.15-16.96-.28-1.84.99-3.55,2.83-3.83,1.83-.29,3.55.99,3.83,2.83.83,5.54,1.86,11.1,3.06,16.51.4,1.82-.75,3.61-2.56,4.01-.24.05-.49.08-.73.08Zm-5.04-33.64c-1.74,0-3.21-1.34-3.35-3.1-.45-5.69-.72-11.49-.79-17.23-.02-1.86,1.47-3.38,3.33-3.4,1.83.02,3.38,1.47,3.4,3.33.07,5.59.32,11.23.77,16.77.15,1.85-1.24,3.47-3.09,3.62-.09,0-.18.01-.27.01Z"/><path class="cls-64" d="m1784.25,603.36c-.07,0-.13,0-.2,0-1.86-.11-3.27-1.7-3.16-3.56.16-2.84.38-5.67.64-8.49.17-1.85,1.79-3.2,3.66-3.04,1.85.17,3.21,1.81,3.04,3.66-.25,2.75-.46,5.51-.62,8.27-.11,1.79-1.59,3.17-3.35,3.17Z"/></g><g class="cls-40"><path class="cls-26" d="m1869.2,429.98c-.94,0-1.87-.39-2.54-1.16-1.22-1.4-1.07-3.53.33-4.75,2.14-1.86,4.31-3.69,6.53-5.48,1.44-1.17,3.57-.95,4.73.49,1.17,1.44.95,3.56-.49,4.73-2.15,1.75-4.27,3.53-6.35,5.34-.64.56-1.42.83-2.21.83Z"/><path class="cls-33" d="m2281.23,626.47s-.08,0-.12,0c-1.86-.07-3.31-1.63-3.24-3.48.11-2.98.16-5.97.16-8.95,0-2.52-.04-5.05-.12-7.57-.06-1.86,1.4-3.41,3.26-3.47,1.92-.03,3.41,1.4,3.47,3.26.08,2.59.12,5.19.12,7.78,0,3.07-.06,6.13-.17,9.19-.07,1.82-1.56,3.24-3.36,3.24Zm-1.05-33.46c-1.71,0-3.17-1.3-3.35-3.03-.54-5.44-1.27-10.95-2.19-16.38-.31-1.83.93-3.57,2.76-3.88,1.85-.31,3.57.93,3.88,2.76.94,5.57,1.69,11.24,2.25,16.83.18,1.85-1.17,3.5-3.02,3.68-.11.01-.22.02-.34.02Zm-5.56-33.01c-1.52,0-2.9-1.04-3.27-2.58-1.27-5.33-2.75-10.69-4.38-15.93-.55-1.77.44-3.66,2.21-4.21,1.77-.56,3.66.44,4.21,2.21,1.68,5.39,3.19,10.89,4.5,16.37.43,1.81-.68,3.62-2.49,4.05-.26.06-.53.09-.79.09Zm-9.95-31.96c-1.35,0-2.62-.82-3.14-2.15-1.97-5.09-4.15-10.21-6.48-15.2-.79-1.68-.06-3.69,1.63-4.47,1.68-.79,3.69-.05,4.47,1.63,2.39,5.13,4.63,10.39,6.65,15.62.67,1.73-.19,3.68-1.93,4.35-.4.15-.81.23-1.21.23Zm-14.13-30.36c-1.19,0-2.34-.63-2.95-1.74-2.66-4.85-5.5-9.63-8.44-14.21-1-1.57-.54-3.65,1.02-4.65,1.57-1,3.64-.55,4.65,1.02,3.01,4.71,5.92,9.62,8.66,14.59.9,1.63.3,3.68-1.33,4.57-.51.28-1.07.42-1.62.42Zm-18.04-28.2c-1.03,0-2.05-.47-2.71-1.36-3.27-4.43-6.73-8.78-10.26-12.94-1.21-1.42-1.03-3.54.38-4.74,1.41-1.2,3.54-1.03,4.74.39,3.63,4.28,7.18,8.75,10.54,13.3,1.11,1.5.79,3.6-.7,4.71-.6.44-1.3.66-2,.66Zm-21.67-25.5c-.88,0-1.75-.34-2.41-1.02-3.82-3.93-7.83-7.77-11.92-11.43-1.38-1.24-1.5-3.37-.26-4.75s3.37-1.5,4.75-.26c4.19,3.76,8.31,7.71,12.24,11.75,1.29,1.33,1.27,3.46-.07,4.76-.65.64-1.5.95-2.35.95Zm-24.92-22.34c-.72,0-1.45-.23-2.07-.71-4.31-3.37-8.8-6.64-13.35-9.72-1.54-1.04-1.94-3.13-.9-4.67,1.04-1.54,3.14-1.94,4.67-.9,4.68,3.17,9.29,6.53,13.72,9.99,1.46,1.15,1.72,3.26.58,4.72-.66.85-1.65,1.29-2.66,1.29Zm-296.92-7.18c-1.06,0-2.1-.5-2.75-1.43-1.07-1.52-.71-3.62.81-4.69,4.59-3.23,9.36-6.36,14.19-9.31,1.58-.97,3.65-.46,4.62,1.12.97,1.59.47,3.66-1.12,4.63-4.7,2.87-9.35,5.91-13.81,9.06-.59.42-1.27.61-1.94.61Zm269.22-11.6c-.58,0-1.16-.15-1.69-.46-4.74-2.76-9.62-5.4-14.54-7.85-1.66-.83-2.34-2.85-1.51-4.51.83-1.66,2.84-2.34,4.51-1.51,5.05,2.51,10.07,5.22,14.93,8.06,1.61.94,2.15,3,1.21,4.6-.62,1.07-1.75,1.67-2.91,1.67Zm-240.63-5.81c-1.22,0-2.39-.66-2.99-1.81-.86-1.65-.22-3.68,1.43-4.54,2.53-1.32,5.09-2.6,7.68-3.84,2.53-1.21,5.07-2.38,7.62-3.5,1.71-.75,3.69.03,4.44,1.73.75,1.7-.03,3.69-1.73,4.43-2.48,1.09-4.96,2.23-7.42,3.41-2.52,1.21-5.01,2.46-7.48,3.74-.5.26-1.03.38-1.55.38Zm210.66-9.08c-.43,0-.87-.08-1.29-.26-5.06-2.11-10.26-4.07-15.46-5.83-1.76-.6-2.7-2.51-2.11-4.27.59-1.76,2.51-2.7,4.27-2.1,5.34,1.81,10.68,3.83,15.88,5.99,1.72.71,2.53,2.68,1.81,4.4-.54,1.29-1.79,2.07-3.11,2.07Zm-180-4.39c-1.38,0-2.67-.85-3.16-2.22-.63-1.75.27-3.68,2.02-4.31,5.3-1.92,10.74-3.68,16.15-5.24,1.79-.52,3.65.52,4.16,2.3.51,1.79-.52,3.65-2.3,4.16-5.27,1.52-10.55,3.23-15.72,5.1-.38.14-.76.2-1.14.2Zm148.31-6.38c-.29,0-.58-.04-.87-.11-5.3-1.41-10.71-2.66-16.09-3.72-1.82-.36-3.01-2.13-2.66-3.95.36-1.82,2.09-3.01,3.95-2.66,5.53,1.08,11.09,2.37,16.54,3.82,1.79.48,2.86,2.32,2.38,4.12-.4,1.51-1.76,2.5-3.25,2.5Zm-116.13-2.87c-1.55,0-2.95-1.08-3.29-2.66-.39-1.82.77-3.61,2.58-4,5.51-1.19,11.13-2.2,16.71-3.01,1.82-.26,3.54,1.01,3.81,2.85.27,1.84-1.01,3.55-2.85,3.82-5.43.79-10.89,1.77-16.26,2.93-.24.05-.48.08-.71.08Zm83.29-3.56c-.14,0-.28,0-.43-.03-5.45-.69-10.99-1.21-16.45-1.53-1.86-.11-3.27-1.7-3.16-3.56.11-1.85,1.7-3.29,3.56-3.16,5.61.33,11.3.86,16.9,1.57,1.84.23,3.15,1.92,2.91,3.76-.22,1.7-1.67,2.94-3.34,2.94Zm-50.16-1.26c-1.74,0-3.22-1.34-3.35-3.11-.14-1.85,1.25-3.47,3.1-3.61,5.62-.43,11.32-.67,16.96-.72h.03c1.85,0,3.35,1.49,3.36,3.34.02,1.86-1.48,3.38-3.34,3.39-5.49.05-11.04.29-16.51.7-.09,0-.17,0-.26,0Z"/><path class="cls-29" d="m2279.02,651.62c-.15,0-.31,0-.47-.03-1.84-.26-3.12-1.96-2.87-3.8.38-2.74.72-5.48,1.01-8.23.19-1.85,1.78-3.18,3.7-3,1.85.19,3.19,1.85,2.99,3.7-.3,2.83-.64,5.65-1.03,8.45-.23,1.68-1.68,2.9-3.33,2.9Z"/></g><path class="cls-2" d="m2246.44,671.94c.53-1.38.14-2.94-.99-3.89l-32.14-27.22c2.75-19.48,2.42-39.53-1.3-59.43l30.89-28.59c1.08-1,1.41-2.58.82-3.93l-20.36-46.23c-.6-1.35-1.98-2.18-3.45-2.05l-41.95,3.48c-12.17-16.18-26.74-29.96-42.97-41.07l1.62-42.09c.06-1.48-.83-2.82-2.2-3.36l-47.09-18.29c-1.38-.53-2.94-.14-3.89.99l-27.22,32.14c-19.47-2.75-39.53-2.42-59.43,1.3l-28.6-30.89c-1-1.08-2.58-1.41-3.93-.82l-46.23,20.36c-1.35.59-2.18,1.98-2.05,3.45l3.48,41.95c-16.18,12.17-29.96,26.74-41.07,42.97l-42.09-1.62c-1.47-.06-2.82.83-3.36,2.2l-18.29,47.09c-.54,1.38-.14,2.94.99,3.89l32.14,27.22c-2.75,19.48-2.42,39.53,1.3,59.43l-30.89,28.6c-1.08,1-1.41,2.58-.82,3.93l20.36,46.23c.59,1.35,1.98,2.18,3.45,2.05l41.95-3.48c12.17,16.18,26.74,29.96,42.97,41.07l-1.62,42.09c-.06,1.48.83,2.82,2.2,3.36l47.09,18.29c1.38.53,2.94.14,3.89-.99l27.22-32.14c19.47,2.75,39.53,2.42,59.43-1.3l28.6,30.89c1,1.08,2.58,1.41,3.93.82l46.23-20.36c1.35-.59,2.18-1.98,2.05-3.45l-3.48-41.95c16.17-12.17,29.96-26.74,41.07-42.96l42.09,1.62c1.48.06,2.82-.83,3.36-2.2l18.29-47.09Z"/><path class="cls-32" d="m2030.63,663.39c-2,0-4.01-.12-6.03-.37-12.78-1.58-24.18-8.05-32.1-18.21-7.92-10.16-11.41-22.79-9.83-35.58,1.58-12.78,8.05-24.18,18.21-32.1,10.16-7.92,22.78-11.41,35.58-9.83,12.78,1.58,24.18,8.05,32.1,18.21h0c16.34,20.97,12.59,51.33-8.39,67.68-8.56,6.67-18.87,10.2-29.55,10.2Zm-.18-89.73c-9.19,0-18.06,3.04-25.43,8.78-8.74,6.81-14.31,16.62-15.67,27.62-1.36,11,1.64,21.87,8.46,30.61,6.81,8.74,16.62,14.31,27.62,15.67,11.01,1.37,21.87-1.64,30.61-8.45,8.74-6.81,14.31-16.62,15.67-27.62,1.36-11-1.64-21.87-8.45-30.61h0c-6.81-8.74-16.62-14.31-27.62-15.67-1.74-.22-3.47-.32-5.19-.32Z"/><path class="cls-32" d="m2029.68,740.12c-48.17,0-94.19-27.93-114.82-74.78-7.21-16.37-10.62-33.48-10.62-50.32,0-48.17,27.94-94.18,74.78-114.81,30.62-13.49,64.66-14.24,95.85-2.12,31.19,12.12,55.79,35.65,69.28,66.28h0c3.33,7.57,5.92,15.45,7.7,23.46.14.65.28,1.29.41,1.94.05.23.07.46.07.68,0,1.56-1.09,2.97-2.69,3.29-1.81.38-3.6-.8-3.97-2.62-1.69-8.21-4.27-16.3-7.68-24.05h0c-12.05-27.35-33.46-48.72-60.65-60.68-1.62-.71-3.25-1.39-4.91-2.03-29.51-11.46-61.72-10.75-90.7,2.01-44.32,19.52-70.76,63.06-70.76,108.64,0,15.94,3.23,32.12,10.05,47.62,26.35,59.82,96.45,87.04,156.26,60.71,19.67-8.66,36.59-22.46,48.93-39.91,1.07-1.51,3.18-1.88,4.69-.8.93.66,1.42,1.7,1.42,2.75,0,.67-.2,1.35-.62,1.94-13.05,18.44-30.93,33.02-51.71,42.18-16.37,7.21-33.47,10.62-50.31,10.62Z"/></g></g></g></svg>